<?xml version="1.0" encoding="utf-8"?>
<!-- Generator: Adobe Illustrator 23.0.3, SVG Export Plug-In . SVG Version: 6.00 Build 0)  -->
<svg version="1.1" xmlns="http://www.w3.org/2000/svg" xmlns:xlink="http://www.w3.org/1999/xlink" x="0px" y="0px"
	 viewBox="0 0 1366 768" style="enable-background:new 0 0 1366 768;" xml:space="preserve">
<style type="text/css">
	.st0{display:none;}
	.st1{display:inline;}
	.st2{fill:#FFFFFF;}
	.st3{display:inline;fill:#FF5DFF;}
	.st4{fill:#232020;}
	.st5{fill:#050606;}
	.st6{fill:#242121;}
	.st7{fill:#252222;}
	.st8{fill:#262323;}
	.st9{fill:#161616;}
</style>
<g id="Layer_1" class="st0">
	<g class="st1">
		<path class="st2" d="M1366,0H0v768h531.24c1.12-4.66,2-9.4,3.56-13.91c10.34-29.88,20.86-59.69,31.32-89.53
			c0.57-1.63,1.1-3.28,1.24-5.35c-9.42,9.06-21.32,10.65-33.21,12.31c-0.97,0.13-1.98,0.48-2.81,1c-11.36,7.11-23.52,6.1-35.81,3.56
			c-18.92-3.91-34.94-13.51-49.77-25.44c-3.95-3.18-9.61-7.64-14.76-11.64c4.4,0.59,11,1,14.91-1.41C435,637,427.96,633.01,425,631
			c11,4,21.96,3.28,31.34-1.63c9.33-4.88,15.82-12.37,20.54-21.69c-2.95,2.93-5.8,5.98-8.87,8.78c-0.36,0.33-0.72,0.65-1.09,0.97
			c-8.83,7.8-19.37,13.42-31.45,12.68c-10.81-0.66-21.59-6.95-26.25-16.94c16.79,6.83,33.18,6.91,41.1-1.21
			c-7.31,3.05-17.29,5.69-26.04,1.82c4.72,0.23,10-1.53,13.72-2.77c13.65-4.54,21.31-18.4,26.42-30.87
			c5.99-14.61,9.9-30.06,11.6-45.76c2.19-20.2,1.11-41.25-0.67-61.46c-1.9-21.49-5.47-42.84-10.46-63.83
			c-3.73-15.69-9.34-31.01-12.13-46.85c-15.38-87.32,9.4-176.95,72.62-240.58c58.2-58.59,139.88-84.91,221.48-76.46
			c90.18,9.34,204.94,68.64,210.29,170.58c0.04,0.61,0.06,1.22,0.09,1.82c0.05,1,0.09,2.01,0.14,3.01
			c0.87,21.16,0.46,43.54-5.83,63.95c-0.64,2.06-1.36,4.13-2.58,5.91c0.96-9.88,1.19-20.33-6.36-27.77
			c5.45,23.05-2.05,41.95-13.07,60.24c2.91-28.99,0.51-56.2-23.56-77.03c0.64,4.33,1.28,8.65,1.91,12.98
			c2.08,14.22-0.05,28.21-2.09,42.24c-1.01,6.9-1.55,13.88-2.04,20.84c-0.87,12.3,4.59,21.45,14.43,28.4
			c8.84,6.25,17.6,12.61,26.37,18.97c1.88,1.37,3.73,2.83,5.38,4.46c8.43,8.33,9.48,15.36,2.23,24.7
			c-5.68,7.32-12.19,14.14-19.13,20.28c-5.67,5.01-8.2,10.66-7.95,17.91c0.05,1.49,0.32,2.98,0.55,4.45
			c2.2,13.96,1.49,15.37-10.86,22.18c-2.59,1.43-5.04,3.1-7.75,4.78c9.99,6.63,10.26,12.34,2.24,20.54
			c-6.15,6.29-12.52,12.67-17.22,20.01c-11.23,17.55-27.52,25.22-47.44,27.37c-23.99,2.6-47.08-1.83-69.91-8.41
			c-7.79-2.25-15.52-4.04-23.52-1.81c-11.31,3.16-18.56,13.32-18.3,25.02c0.09,4.11,1.56,7.06,5.59,8.46
			c4.55,1.58,9.07,3.25,13.62,4.82c20.81,7.18,25.47,29.37,26.67,48.86c1.84,29.37,2.17,58.76,4.7,87.93
			c1.78,20.58,4.66,41.04,9.93,61.3c0.5,1.92,0.93,3.85,1.38,5.78H1366V0z"/>
		<path d="M783.46,700.91c-2.53-29.17-2.85-58.56-4.7-87.93c-1.21-19.49-5.87-41.68-26.67-48.86c-4.55-1.57-9.07-3.23-13.62-4.82
			c-4.04-1.41-5.5-4.35-5.59-8.46c-0.26-11.7,6.99-21.87,18.3-25.02c8.01-2.23,15.73-0.44,23.52,1.81
			c22.82,6.58,45.92,11.01,69.91,8.41c19.92-2.16,36.22-9.83,47.44-27.37c4.7-7.35,11.07-13.72,17.22-20.01
			c8.02-8.21,7.75-13.91-2.24-20.54c2.71-1.68,5.16-3.36,7.75-4.78c12.35-6.8,13.06-8.22,10.86-22.18c-0.23-1.48-0.5-2.96-0.55-4.45
			c-0.25-7.24,2.28-12.9,7.95-17.91c6.94-6.14,13.45-12.96,19.13-20.28c7.25-9.34,6.2-16.38-2.23-24.7
			c-1.65-1.63-3.5-3.09-5.38-4.46c-8.76-6.36-17.52-12.72-26.37-18.97c-9.84-6.95-15.3-16.1-14.43-28.4
			c0.49-6.96,1.03-13.94,2.04-20.84c2.05-14.03,4.17-28.02,2.09-42.24c-0.63-4.33-1.28-8.65-1.91-12.98
			c24.07,20.82,26.47,48.04,23.56,77.03c11.03-18.29,18.52-37.19,13.07-60.24c7.56,7.44,7.32,17.89,6.36,27.77
			c1.22-1.78,1.94-3.85,2.58-5.91c6.29-20.41,6.7-42.78,5.83-63.95c-0.04-1-0.09-2.01-0.14-3.01c-0.03-0.61-0.05-1.22-0.09-1.82
			C951.79,113.84,837.03,54.54,746.85,45.2c-81.6-8.45-163.27,17.87-221.48,76.46c-63.21,63.63-88,153.26-72.62,240.58
			c2.79,15.84,8.4,31.15,12.13,46.85c4.99,20.99,8.56,42.33,10.46,63.83c1.78,20.2,2.86,41.25,0.67,61.46
			c-1.7,15.69-5.61,31.15-11.6,45.76C459.31,592.6,451.65,606.46,438,611c-3.73,1.24-9,3-13.72,2.77
			c8.75,3.87,18.72,1.23,26.04-1.82c-7.92,8.12-24.31,8.05-41.1,1.21c4.65,9.99,15.44,16.28,26.25,16.94
			c12.08,0.74,22.62-4.88,31.45-12.68c0.36-0.32,0.73-0.65,1.09-0.97c3.07-2.8,5.92-5.84,8.87-8.78
			c-4.71,9.32-11.21,16.81-20.54,21.69C446.96,634.28,436,635,425,631c2.96,2.01,10,6,20.91,6.59C442,640,435.4,639.59,431,639
			c5.15,4,10.81,8.46,14.76,11.64c14.83,11.94,30.85,21.53,49.77,25.44c12.29,2.54,24.45,3.54,35.81-3.56
			c0.83-0.52,1.84-0.87,2.81-1c11.89-1.66,23.8-3.25,33.21-12.31c-0.15,2.07-0.67,3.72-1.24,5.35
			c-10.45,29.84-20.97,59.65-31.32,89.53c-1.56,4.51-2.44,9.25-3.56,13.91c-0.08,0.33-0.16,0.67-0.24,1c88,0,176,0,264,0
			c-0.08-0.33-0.15-0.67-0.23-1c-0.45-1.93-0.88-3.87-1.38-5.78C788.12,741.95,785.24,721.49,783.46,700.91z"/>
	</g>
</g>
<g id="Layer_1_copy" class="st0">
	<g class="st1">
		<path class="st2" d="M566.12,694.56c0.57-1.63,1.1-3.28,1.24-5.35c-9.42,9.06-21.32,10.65-33.21,12.31
			c-0.97,0.13-1.98,0.48-2.81,1c-11.36,7.11-23.52,6.1-35.81,3.56c-18.92-3.91-34.94-13.51-49.77-25.44
			c-3.95-3.18-9.61-7.64-14.76-11.64c4.4,0.59,11,1,14.91-1.41C435,667,427.96,663.01,425,661c11,4,21.96,3.28,31.34-1.63
			c9.33-4.88,15.82-12.37,20.54-21.69c-2.95,2.93-5.8,5.98-8.87,8.78c-0.36,0.33-0.72,0.65-1.09,0.97
			c-8.83,7.8-19.37,13.42-31.45,12.68c-10.81-0.66-21.59-6.95-26.25-16.94c16.79,6.83,33.18,6.91,41.1-1.21
			c-7.31,3.05-17.29,5.69-26.04,1.82c4.72,0.23,10-1.53,13.72-2.77c13.65-4.54,21.31-18.4,26.42-30.87
			c5.99-14.61,9.9-30.06,11.6-45.76c2.19-20.2,1.11-41.25-0.67-61.46c-1.9-21.49-5.47-42.84-10.46-63.83
			c-3.73-15.69-9.34-31.01-12.13-46.85c-15.38-87.32,9.4-176.95,72.62-240.58c58.2-58.59,139.88-84.91,221.48-76.46
			c90.18,9.34,204.94,68.64,210.29,170.58c0.04,0.61,0.06,1.22,0.09,1.82c0.05,1,0.09,2.01,0.14,3.01
			c0.87,21.16,0.46,43.54-5.83,63.95c-0.64,2.06-1.36,4.13-2.58,5.91c0.96-9.88,1.19-20.33-6.36-27.77
			c5.45,23.05-2.05,41.95-13.07,60.24c2.91-28.99,0.51-56.2-23.56-77.03c0.64,4.33,1.28,8.65,1.91,12.98
			c2.08,14.22-0.05,28.21-2.09,42.24c-1.01,6.9-1.55,13.88-2.04,20.84c-0.87,12.3,4.59,21.45,14.43,28.4
			c8.84,6.25,17.6,12.61,26.37,18.97c1.88,1.37,3.73,2.83,5.38,4.46c8.43,8.33,9.48,15.36,2.23,24.7
			c-5.68,7.32-12.19,14.14-19.13,20.28c-5.67,5.01-8.2,10.66-7.95,17.91c0.05,1.49,0.32,2.98,0.55,4.45
			c2.2,13.96,1.49,15.37-10.86,22.18c-2.59,1.43-5.04,3.1-7.75,4.78c9.99,6.63,10.26,12.34,2.24,20.54
			c-6.15,6.29-12.52,12.67-17.22,20.01c-11.23,17.55-27.52,25.22-47.44,27.37c-23.99,2.6-47.08-1.83-69.91-8.41
			c-7.79-2.25-15.52-4.04-23.52-1.81c-11.31,3.16-18.56,13.32-18.3,25.02c0.09,4.11,1.56,7.06,5.59,8.46
			c4.55,1.58,9.07,3.25,13.62,4.82c20.81,7.18,25.47,29.37,26.67,48.86c1.84,29.37,2.17,58.76,4.7,87.93
			c1.07,12.41,2.56,24.78,4.72,37.09H1366V0H0v768h540.4C548.93,743.51,557.54,719.04,566.12,694.56z"/>
		<path d="M778.76,642.98c-1.21-19.49-5.87-41.68-26.67-48.86c-4.55-1.57-9.07-3.23-13.62-4.82c-4.04-1.41-5.5-4.35-5.59-8.46
			c-0.26-11.7,6.99-21.87,18.3-25.02c8.01-2.23,15.73-0.44,23.52,1.81c22.82,6.58,45.92,11.01,69.91,8.41
			c19.92-2.16,36.22-9.83,47.44-27.37c4.7-7.35,11.07-13.72,17.22-20.01c8.02-8.21,7.75-13.91-2.24-20.54
			c2.71-1.68,5.16-3.36,7.75-4.78c12.35-6.8,13.06-8.22,10.86-22.18c-0.23-1.48-0.5-2.96-0.55-4.45c-0.25-7.24,2.28-12.9,7.95-17.91
			c6.94-6.14,13.45-12.96,19.13-20.28c7.25-9.34,6.2-16.38-2.23-24.7c-1.65-1.63-3.5-3.09-5.38-4.46
			c-8.76-6.36-17.52-12.72-26.37-18.97c-9.84-6.95-15.3-16.1-14.43-28.4c0.49-6.96,1.03-13.94,2.04-20.84
			c2.05-14.03,4.17-28.02,2.09-42.24c-0.63-4.33-1.28-8.65-1.91-12.98c24.07,20.82,26.47,48.04,23.56,77.03
			c11.03-18.29,18.52-37.19,13.07-60.24c7.56,7.44,7.32,17.89,6.36,27.77c1.22-1.78,1.94-3.85,2.58-5.91
			c6.29-20.41,6.7-42.78,5.83-63.95c-0.04-1-0.09-2.01-0.14-3.01c-0.03-0.61-0.05-1.22-0.09-1.82
			C951.79,143.84,837.03,84.54,746.85,75.2c-81.6-8.45-163.27,17.87-221.48,76.46c-63.21,63.63-88,153.26-72.62,240.58
			c2.79,15.84,8.4,31.15,12.13,46.85c4.99,20.99,8.56,42.33,10.46,63.83c1.78,20.2,2.86,41.25,0.67,61.46
			c-1.7,15.69-5.61,31.15-11.6,45.76C459.31,622.6,451.65,636.46,438,641c-3.73,1.24-9,3-13.72,2.77
			c8.75,3.87,18.72,1.23,26.04-1.82c-7.92,8.12-24.31,8.05-41.1,1.21c4.65,9.99,15.44,16.28,26.25,16.94
			c12.08,0.74,22.62-4.88,31.45-12.68c0.36-0.32,0.73-0.65,1.09-0.97c3.07-2.8,5.92-5.84,8.87-8.78
			c-4.71,9.32-11.21,16.81-20.54,21.69C446.96,664.28,436,665,425,661c2.96,2.01,10,6,20.91,6.59C442,670,435.4,669.59,431,669
			c5.15,4,10.81,8.46,14.76,11.64c14.83,11.94,30.85,21.53,49.77,25.44c12.29,2.54,24.45,3.54,35.81-3.56
			c0.83-0.52,1.84-0.87,2.81-1c11.89-1.66,23.8-3.25,33.21-12.31c-0.15,2.07-0.67,3.72-1.24,5.35
			c-8.58,24.48-17.19,48.94-25.72,73.44h247.78c-2.16-12.31-3.64-24.68-4.72-37.09C780.94,701.75,780.61,672.35,778.76,642.98z"/>
	</g>
</g>
<g id="Layer_4" class="st0">
	<rect class="st3" width="1366" height="768"/>
</g>
<g id="title" class="st0">
	<g class="st1">
		<path class="st4" d="M434.46,382.71c36.83,39.72,71.3,81.63,110.75,118.94c4.8,4.54,8.24,6.09,14.48,3.47
			c8.6-3.62,17.91-5.44,26.48-9.33c1.68-0.76,2.71-1.29,1.74-3.69c-8.79-21.9-17.7-43.76-26.01-65.85
			c-21.8-57.96-43.77-115.85-66.11-173.6c-2.64-6.81-2.66-6.77-9.46-4.26c-12.89,4.76-26.04,8.82-38.72,14.17
			c-2.5,1.05-3.07,2.06-1.93,4.8c16.51,39.51,31.7,79.56,48.79,118.84c1.53,3.52,3.1,7.1,3.91,11.34
			c-20.86-18.87-39.26-39.48-57.4-60.32c-11.91-13.69-23.68-27.5-36.11-40.72c-1.11-1.18-1.94-2.75-4.2-1.84
			c-10.05,4.02-20.41,7.24-30.37,11.52c-2.07,0.89-2.38,1.85-1.59,3.85c2.53,6.45,4.86,12.99,7.33,19.47
			c12.53,32.84,26.75,65.05,37.29,98.63c9.92,31.6,22.29,62.3,34.06,93.22c0.95,2.51,1.86,3.23,4.64,2.23
			c7.91-2.86,15.63-6.09,23.13-9.9c1.96-0.99,2.57-1.86,1.76-4.13c-11.4-31.84-21.61-64.09-33.47-95.77
			c-4.17-11.13-8.24-22.3-12.55-33.98C432.95,380.49,433.58,381.76,434.46,382.71z"/>
		<path class="st4" d="M867.56,583.4c-10.57-38.4-24.18-75.77-37.98-113.09c-7.55-20.42-15.23-40.8-23.85-60.81
			c-0.7-1.63-0.99-3.43-3.76-2.45c-8.94,3.17-17.97,6.07-26.69,9.86c-1.85,0.81-2.23,1.44-1.32,3.42
			c3.04,6.63,5.97,13.32,8.65,20.11c15.5,39.27,28.37,79.5,43.78,118.81c5.74,14.64,10.2,29.62,11.24,45.52
			c0.58,8.84-3.04,14.73-10.19,19.02c-8.3,4.99-17.44,7.24-26.99,8.28c-6.28,0.68-10.83-1.82-14.3-6.84
			c-3.41-4.95-5.74-10.43-8.05-15.93c-9.81-23.34-17.68-47.41-26.52-71.11c-10.97-29.39-24.01-58.01-33.28-88.04
			c-0.79-2.55-2.05-1.62-3.54-1.12c-13.94,4.72-27.83,9.61-41.86,14.02c-3.69,1.16-4.06,2.3-2.7,5.66
			c10.3,25.36,20.69,50.68,30.53,76.22c11.11,28.83,20.24,58.38,31.33,87.23c3.95,10.27,8.65,20.13,15.66,28.72
			c8.49,10.41,19.22,17.17,32.83,17.34c25.27,0.32,49-6,70.46-19.42c15.27-9.56,23.17-23.61,22.11-41.85
			C873.49,605.27,870.57,594.33,867.56,583.4z"/>
		<path class="st4" d="M688.67,580.21c-7.15-18.25-15.35-36-26.01-52.56c-9.86-15.32-24.06-21.36-41.69-20.27
			c-16.49,1.01-32.07,5.65-46.8,13.01c-14.26,7.13-24.77,17.79-30.38,33c-4.49,12.18-6.07,24.69-3.35,37.33
			c8.94,41.49,23.12,81.1,43.9,118.21c4.77,8.52,10.7,16.24,17.74,23.09c9.79,9.54,21.64,13.77,34.99,12.24
			c21.42-2.45,41.56-9.48,59.77-20.94c14.71-9.26,22.03-23.28,21.75-40.92c-0.08-7.48-1.23-14.81-2.97-22.04
			C708.99,632.86,698.95,606.48,688.67,580.21z M676.8,694.95c-7.98,6.86-17.6,9.73-28.12,8.99c-7.28-0.51-12.83-4.12-16.75-10.31
			c-5.82-9.18-10.52-18.93-14.82-28.87c-10.88-25.14-20.95-50.57-27.85-77.15c-1.1-4.24-1.77-8.58-1.82-14.15
			c-0.43-5.89,2.56-11.08,8.61-14.57c8.23-4.74,17.1-7.56,26.5-8.77c7.7-0.99,13.42,1.88,17.51,8.55
			c5.68,9.28,10.11,19.15,14.15,29.2c9.94,24.72,19.94,49.41,27.77,74.91c1.15,3.73,1.94,7.54,2.4,11.42
			C685.36,682.39,683,689.63,676.8,694.95z"/>
		<path class="st4" d="M544.24,228.02c-13.5,11.87-18.09,27.35-16.21,44.84c1.83,16.95,6.94,33.08,13.67,48.66
			c4.38,10.14,10.44,19.26,18.73,26.72c11.32,10.17,24.17,14.37,39.43,10.84c11.02-2.55,22.2-4.57,33.59-4.55
			c17.19,0.03,28.16,7.99,33.71,24.3c0.74,2.18,1.39,4.42,1.85,6.67c2.74,13.21-1.83,22.3-14.01,27.94
			c-4.2,1.94-8.56,3.48-13.07,4.59c-13.62,3.36-21.98-0.79-27.4-13.75c-2.48-5.95-4.77-11.98-7.01-18.02
			c-0.65-1.75-1.25-2.19-3.14-1.48c-9.33,3.53-18.71,6.91-28.11,10.27c-1.5,0.54-2.22,0.93-1.47,2.78
			c4.71,11.62,9.59,23.13,16.05,33.95c8.51,14.24,21.14,21.01,37.42,20.33c22.61-0.94,43.54-7.57,62.21-20.58
			c6.65-4.64,12.19-10.44,16.27-17.54c4.65-8.09,6.19-16.56,3.3-25.62c-1.22-3.82-2.28-7.7-3.55-11.51
			c-5.19-15.59-10.88-30.98-18.5-45.6c-5.31-10.18-13.55-15.9-24.68-18c-6.14-1.16-12.32-1.48-18.53-1.52
			c-13.29-0.1-26.51,1.19-39.76,1.71c-3.28,0-6.59,0.24-9.85-0.05c-6.34-0.55-11.96-2.9-15.35-8.57
			c-7.71-12.88-12.74-26.76-14.67-41.7c-0.44-3.44,0.33-6.72,2.95-9.04c9.1-8.08,19.73-11.82,31.91-10.34
			c6.3,0.77,9.15,5.62,11.33,10.78c4.59,10.87,8.95,21.84,13.43,32.75c2.45,5.97,2.46,5.91,8.33,3.62
			c11.67-4.56,23.37-9.04,35.04-13.58c1.56-0.6,3.14-0.92,2.07-3.53c-5.89-14.41-11.14-29.09-17.79-43.18
			c-3.74-7.93-8.92-14.78-15.8-20.28c-4.54-3.63-9.56-6.35-15.39-7.11C591.71,199.4,566.26,208.65,544.24,228.02z"/>
		<path class="st4" d="M720.69,173.14c-2.63,0.95-1.7,2.3-1.04,3.9c7.85,19,15.08,38.24,22.29,57.49
			c19.23,51.37,38.73,102.64,58.55,153.78c0.59,1.53,0.9,2.51,3,1.79c18.52-6.36,37.25-12.11,55.58-18.98
			c22.35-8.38,38.72-23.03,45.16-47c2.29-8.52,3.53-17.15,3.64-25.98c-0.26-3.88-0.3-7.8-0.82-11.65c-2.81-21-9.4-40.98-16.94-60.66
			c-6.81-17.77-14.34-35.3-26.44-50.18c-19.44-23.89-43.91-35.24-74.88-26.5C765.61,155.69,743.32,164.93,720.69,173.14z
			 M817.74,188.16c6.45,4.85,11.4,11.08,14.84,18.27c13.01,27.21,22.35,55.71,29.07,85.08c0.56,2.47,0.56,5.07,0.82,7.61
			c-0.02,13.42-5.77,23.28-17.54,29.84c-7.97,4.44-16.53,7.02-25.25,9.29c-1.88,0.49-2.78,0.06-3.48-1.86
			c-16.88-46.4-33.8-92.78-50.79-139.14c-0.75-2.06-0.46-2.95,1.56-3.86c8.67-3.89,17.52-7.27,26.65-9.9
			C802.43,180.94,810.47,182.69,817.74,188.16z"/>
		<path class="st4" d="M1092.46,231.83c-0.71-2.27-2.16-0.91-3.21-0.57c-13.43,4.36-26.79,8.98-39.54,15.04
			c-26.93,12.79-55.43,21.12-83.72,30.08c-1.63,0.52-2.56,0.67-3.29-1.29c-5.62-15.04-11.24-30.08-15.45-45.61
			c-0.63-2.33-0.37-3.67,2.16-4.77c6.58-2.85,13.01-6.06,19.48-9.17c15.7-7.55,31.87-13.97,48.33-19.6
			c3.53-1.21,4.04-2.52,2.57-5.89c-2.18-5-3.71-10.29-5.52-15.46c-0.96-2.75-1.16-6.65-3.1-7.96c-2.26-1.52-5.38,1.51-8.25,2.17
			c-18.9,4.39-37.11,10.86-54.87,18.6c-2.04,0.89-2.7,0.26-3.42-1.57c-4.87-12.47-9.8-24.9-14.79-37.32
			c-0.67-1.68-0.63-2.52,1.25-3.29c19.69-8.08,38.95-17.23,59.18-23.95c2.46-0.82,2.15-1.69,1.36-3.56
			c-5.81-13.8-10.95-27.86-15.36-42.16c-1.15-3.74-2.49-3.91-5.79-2.92c-14.6,4.41-28.41,10.81-42.52,16.47
			c-19.53,7.83-39.52,14.48-58.93,22.66c-2.68,1.13-3.29,2.05-2.05,4.95c6.54,15.33,13.03,30.69,19.11,46.2
			c20.69,52.79,39.12,106.4,58.03,159.84c0.6,1.68,0.61,3.38,3.51,2.42c12.92-4.31,25.89-8.51,38.93-12.43
			c39.14-11.74,73.92-33.66,112.06-47.72c0.89-0.33,1.46-0.88,1.29-1.43C1097.2,252.7,1095.67,242.07,1092.46,231.83z"/>
		<path class="st4" d="M977.98,517.23c-12.44-35.6-24.39-71.37-36.75-106.99c-1.24-3.57-0.44-4.91,2.85-6.01
			c3.8-1.27,7.42-3.05,11.17-4.49c14.66-5.6,29.34-11.15,43.99-16.75c1.01-0.38,2.56-0.22,2.59-1.94c-0.2-0.5-0.39-0.95-0.56-1.41
			c-3.52-9.6-6.58-19.35-9.37-29.18c-0.82-2.89-1.58-3.48-4.59-2.27c-48.79,19.52-97.53,39.15-147.27,56.2
			c-3.9,1.34-7.66,3.1-11.5,4.62c-1.78,0.7-2.38,1.61-1.5,3.59c5.62,12.69,10.01,25.85,14.66,38.91c0.66,1.85,1.39,2.47,3.43,1.75
			c5.04-1.78,10.19-3.27,15.27-4.95c11.78-3.89,23.36-8.38,35.42-11.42c2.35-0.59,3.42-0.07,4.24,2.27
			c2.74,7.8,5.64,15.55,8.6,23.28c21.67,56.56,44.23,112.8,62.19,170.72c4.72,15.22,9.9,30.3,15.53,45.21
			c0.56,1.49,0.56,3.32,3.33,2.24c12.36-4.8,24.83-9.3,37.21-14.02c4.58-1.74,4.46-1.86,2.92-6.31
			C1013.3,612.33,994.71,565.12,977.98,517.23z"/>
		<path class="st4" d="M413.04,486.75c-11.93-34.74-26.21-68.61-38.75-103.13c-14.24-39.21-29.92-77.88-43.75-117.24
			c-4.92-14-9.48-28.12-14.27-42.16c-0.35-1.02-0.22-2.54-1.83-2.81c-0.38,0.14-0.73,0.25-1.07,0.38
			c-13.97,5.36-28.58,8.83-42.45,14.52c-3.63,1.49-3.83,2.82-2.55,6.21c30.17,79.35,61.37,158.3,90.79,237.93
			c9.61,26.02,20.14,51.67,30.74,77.3c0.55,1.32,0.43,3.63,3.28,2.33c12.08-5.49,24.7-9.61,37.01-14.54
			c2.14-0.86,2.69-1.65,1.79-3.98C425.04,523.51,419.32,505.03,413.04,486.75z"/>
		<path class="st4" d="M699.94,180.8c-0.35-0.91-0.29-2.31-1.65-2.24c-0.94,0.24-1.65,0.42-2.35,0.61
			c-11.53,3.12-22.58,7.6-33.74,11.79c-2.64,0.99-2.89,1.92-1.82,4.37c20.85,48.01,38.17,97.36,55.7,146.64
			c7.46,20.97,14.71,42.01,22.13,63c0.41,1.16,0.05,3.43,2.87,2.43c11.81-4.18,23.64-8.27,34.97-13.69
			c1.94-0.93,2.65-1.67,1.77-4.04c-18.7-50.4-37.24-100.85-55.93-151.25C714.74,219.15,707.28,200,699.94,180.8z"/>
		<path class="st4" d="M449.17,177.73c-0.38-1.57-1.86-0.26-2.39-1.37c1.37-1.33,3.11-1.94,4.77-2.6
			c14.92-5.97,29.93-5.61,44.93-0.36c3.94,1.38,7.42,3.66,10.32,6.71c4.52,4.75,4.74,10.81,0.51,15.78
			c-4.99,5.88-11.78,8.36-19.04,9.94c-1.45,0.31-1.95-0.4-2.36-1.56c-1.26-3.55-2.49-7.12-3.9-10.61c-0.62-1.54-0.27-2.19,1.26-2.6
			c3.06-0.84,6.14-1.55,9.31-1.73c4.83-0.26,4.89-0.16,3.17,4.17c3.1,0.25,4.98-0.97,5.47-3.72c0.54-2.99-1.23-4.61-3.76-5.41
			c-4.74-1.49-9.54-0.85-13.94,0.98c-3.67,1.53-4.97,0.34-5.73-3c-0.35-1.53-0.99-3.02-2.24-4.11c-0.72-0.63-1.53-1.52-2.53-1.05
			c-0.89,0.41-0.56,1.53-0.45,2.31c0.34,2.28,0.57,4.62,1.27,6.8c0.65,2.02,0.19,3.06-1.63,4.09c-3.4,1.93-6.52,4.26-8.77,7.57
			c-1.74,2.55-1.57,4.64,1.18,6.48c3.82,2.54,7.97,4.3,12.43,4.99c2.83,0.44,5.1,1.07,6.28,3.97c0.41,1.01,1.39,1.76,2.69,1.29
			c1.02-0.37,2.44-0.76,2.2-2.05c-0.49-2.65,1.44-2.34,2.85-2.59c4.97-0.86,9.72-2.37,13.95-5.12c6.47-4.19,11.79-9.37,11.5-17.8
			c-0.28-8.23-5.95-12.76-12.53-16.19c-10.55-5.5-21.92-7.02-33.66-6.13c-8.75,0.67-16.97,3.08-24.27,8.14
			c-2.08,1.44-3.02,3.9-1.64,5.65C445.65,180.16,447.83,178.91,449.17,177.73z M477.28,206.22c-4.17-0.24-7.91-1.12-11.38-3.06
			c-1.86-1.04-2.32-2.25-0.32-3.46c2.91-1.76,5.96-3.29,8.9-4.99c1.57-0.91,1.85,0.11,2.19,1.24c0.77,2.56,1.51,5.13,2.38,7.65
			C479.73,205.6,479.5,206.71,477.28,206.22z"/>
		<path class="st5" d="M758.83,78.78c2.78-1.31,3.5,0.37,4.23,2.56c2.16,6.45,4.39,12.87,6.71,19.25c0.81,2.22,1.05,3.94-1.8,4.67
			c-0.85,0.22-1.64,0.76-1.22,1.85c0.63,1.63,1.65,0.39,2.37,0.15c3.92-1.3,7.79-2.71,11.68-4.08c0.75-0.26,1.97-0.17,1.79-1.34
			c-0.2-1.28-1.36-1.34-2.3-0.92c-2.63,1.17-3.42-0.38-4.02-2.48c-0.37-1.28-1.05-2.48-1.31-3.78c-0.3-1.51-2.28-3.01-0.52-4.57
			c1.76-1.57,3.36-0.11,4.91,0.77c4.66,2.62,9.34,5.18,14.26,7.3c2.09,0.9,3.93,1.01,6.07-0.96c-5.22-3.21-10.03-6.45-14.71-9.88
			c-2.28-1.67-3.2-2.9-1.26-5.69c1.79-2.58,2.74-5.88,0.39-8.85c-2.21-2.8-5.32-2.55-8.38-1.93c-6.1,1.23-11.82,3.66-17.65,5.7
			c-0.72,0.25-1.88,0.26-1.38,1.57C757.1,79.21,758.06,79.14,758.83,78.78z M773.05,74.77c3.61,0.02,5.76,1.8,6.03,4.98
			c0.26,3.19-2.68,7.19-5.53,7.76c-1.37,0.27-1.37-0.71-1.62-1.41c-0.83-2.28-1.58-4.59-2.34-6.9
			C768.33,75.36,768.82,74.75,773.05,74.77z"/>
		<path class="st5" d="M729.83,121.03c3.1-1.07,6.19-2.16,9.28-3.25c0.64-0.23,1.67-0.17,1.47-1.19c-0.18-0.93-0.96-1.44-1.95-1.09
			c-2.32,0.81-2.71-0.52-2.77-2.36c-0.05-1.34-0.19-2.67-0.33-4.6c-1.4-3.37,0.71-4.89,4.13-6.28c3.17-1.29,5.35-1.3,7.16,1.86
			c0.84,1.46,2.01,2.75,3.12,4.03c1.32,1.51,2.09,2.81-0.61,3.61c-0.95,0.28-1.44,0.94-1.11,1.94c0.5,1.53,1.44,0.36,2.02,0.16
			c4.03-1.34,8.03-2.8,12.04-4.21c0.65-0.23,1.62-0.13,1.51-1.16c-0.11-1.06-0.95-1.44-1.87-1.1c-2.64,0.98-4.08-0.69-5.49-2.4
			c-4.73-5.71-9.44-11.44-14.14-17.18c-0.97-1.18-2.48-2.42,0.16-3.53c0.82-0.34,0.8-1.18,0.38-1.86c-0.44-0.73-1.05-0.25-1.59-0.06
			c-3.9,1.35-7.81,2.69-11.7,4.05c-0.55,0.19-1.23,0.34-1.12,1.17c0.11,0.85,0.62,1.41,1.48,1.14c2.47-0.79,2.21,0.82,2.16,2.32
			c-0.24,7.66-0.5,15.31-0.7,22.97c-0.06,2.14-0.13,4.16-2.66,4.96c-1.02,0.32-1.27,1.17-0.77,2.03
			C728.43,121.88,729.2,121.25,729.83,121.03z M735.06,97.92c0.23-2.38,0.05-4.79,0.05-7.19c0.27-0.1,0.54-0.2,0.81-0.3
			c1.18,1.5,2.37,2.99,3.54,4.49c2.88,3.67,2.85,3.59-1.55,5.04C735.77,100.66,734.81,100.55,735.06,97.92z"/>
		<path class="st5" d="M685.26,104.34c1.36-0.22,2.59-0.21,3.82,0.6c3.65,2.42,7.35,4.74,11.04,7.1c0.84,0.54,1.8,1.1,1.25,2.27
			c-2.68,5.71-2.44,12.77-7.95,17.16c-0.55,0.44-0.72,1.08-0.48,1.63c0.43,0.97,1.16,0.42,1.83,0.19c2.98-1.06,5.96-2.1,8.94-3.13
			c0.68-0.23,1.59-0.27,1.52-1.24c-0.07-1.12-0.92-1.26-1.87-1.11c-0.59,0.09-1.21,0.22-1.8-0.38c0.77-4.06,1.47-8.2,2.97-12.45
			c5.68,3.33,10.98,6.79,16.82,9.24c2.02,0.85,3.7,0.97,5.43-1.12c-6.14-4.27-12.13-8.41-18.09-12.61c-0.8-0.56-2.38-0.93-1.7-2.36
			c2.22-4.63,2.6-10.21,6.97-13.72c0.67-0.54,0.96-1.11,0.66-1.86c-0.42-1.05-1.19-0.46-1.82-0.25c-2.76,0.94-5.51,1.89-8.26,2.87
			c-0.53,0.19-1.35,0.24-1.3,0.99c0.04,0.75,0.54,1.41,1.42,1.33c0.99-0.08,2.12-0.43,1.67,1.26c-0.72,2.73-1.51,5.43-2.35,8.43
			c-3.05-2.06-5.68-3.73-7.91-6.02c0.4-0.35,0.64-0.65,0.95-0.8c0.94-0.45,1.89-1.03,1.34-2.18c-0.64-1.32-1.65-0.22-2.4,0.02
			c-3.57,1.18-7.12,2.46-10.65,3.76c-0.57,0.21-1.63-0.01-1.51,1.1C683.9,103.84,684.35,104.48,685.26,104.34z"/>
		<path class="st6" d="M594.06,175.55c0.27,2.78,0.7,5.54,1.15,8.3c0.34,2.09,1.58,3.52,3.57,4.27c1.87,0.7,3.11,0.64,2.64-1.97
			c-0.86-4.8-1.13-9.66-1.23-14.54c-0.04-2.1,0.42-3.35,2.65-4.42c7.46-3.57,10.56-15.25,5.85-20.96c-3.08-3.73-5.27-3.65-8.01,0.28
			c-2.89,4.14-4.15,8.97-5.76,14.23c-3.1-5.49,1.67-10.86-1.1-16.53c-3.14,6.1-5.31,12.18-2.31,17.79
			C593.95,166.56,593.62,170.96,594.06,175.55z M605.28,147.61c4.02,4.51,2.24,10.58-4.09,13.78
			C601.75,156.4,603.03,151.96,605.28,147.61z"/>
		<path class="st5" d="M634.64,122.05c2.53-1.04,3.34,0.31,4.05,2.46c2.09,6.35,4.28,12.68,6.59,18.95
			c0.89,2.43,1.37,4.39-1.82,5.32c-0.94,0.28-1.42,1.06-0.9,1.99c0.49,0.88,1.24,0.33,1.91,0.09c4.35-1.55,8.72-3.07,13.07-4.61
			c0.74-0.26,1.99-0.16,1.76-1.35c-0.24-1.23-1.43-1.32-2.36-0.88c-3.59,1.66-4.7-0.4-5.39-3.36c-0.36-1.53-0.91-3.01-1.37-4.51
			c-2.27-4.82-3.54-10-5.43-14.95c-0.79-2.06,0.16-2.55,1.89-2.79c2.76-0.39,5.13,0.21,6.55,2.77c1.57,2.85,1.75,5.78-0.3,8.53
			c-0.57,0.76-1.46,1.29-2.02,2.06c-0.64,0.87-1.14,1.78-0.41,2.26c0.31,0.13,0.72,0.24,1.28,0.33c2.74-2.18,5.75-4.1,7.43-7.36
			c1.67-3.24,2.1-6.58,0.03-9.72c-2.03-3.07-5.25-3.19-8.52-2.68c-5.82,0.9-11.18,3.32-16.7,5.18c-0.74,0.25-1.94,0.25-1.68,1.45
			C632.57,122.55,633.69,122.44,634.64,122.05z"/>
		<path class="st6" d="M525.37,177.36c0.99,2.53,3.17,1.63,5.03,1.61c0.82-0.66,1.79-0.78,2.8-0.79c0,0,0,0,0,0
			c1.42-0.82,3.02-1.01,4.6-1.25c1.29-0.24,2.57-0.55,3.87-0.7c1.32-0.15,2.86-0.24,3.55,1.08c0.77,1.47-0.56,2.34-1.58,3.17
			c-0.76,1.04-1.78,1.69-2.99,2.07c-1.84,1.18-3.79,2.12-5.93,2.6c-1.39,0.31-3.28,0.88-3.5-1.1c-0.21-1.84,1.75-1.97,3.19-2.07
			c1.8-0.12,3.61-0.12,5.42-0.18c1.01-0.71,2.02-1.43,3.02-2.14c0.01-0.45,0.03-0.9,0.04-1.35c-2.99-0.67-5.86,0.2-8.76,0.67
			c-0.72,0.26-1.45,0.52-2.17,0.79c0,0,0,0,0,0c-1.7,1.28-3.37,2.66-2.67,5.08c0.65,2.26,2.68,3.12,4.72,3.53
			c5.26,1.07,9.86-0.38,13.66-4.16c2.38-2.37,2.43-5.13,1.14-8.06c-1.23-2.79-3.65-3.52-6.31-3.28c-2.27,0.2-4.5,0.92-6.75,1.4
			c-2.05,0.44-4.05,1.3-6.89,0.79c1.96-1.79,3.75-2.72,5.59-3.57c2.86-1.32,5.75-2.6,8.6-3.95c1.24-0.58,2.66-1.43,2.26-2.91
			c-0.42-1.55-2.1-0.86-3.18-0.73c-5.83,0.72-10.94,3.05-15.21,7.16C525.03,172.88,524.42,174.95,525.37,177.36z"/>
		<path class="st5" d="M664.54,111.66c2.79-1.23,3.49,0.49,4.21,2.65c2.04,6.1,4.21,12.17,6.36,18.24c0.87,2.46,2.04,4.93-1.88,5.87
			c-0.81,0.19-1.07,0.98-0.75,1.77c0.43,1.04,1.14,0.49,1.8,0.25c3.42-1.24,6.88-2.4,10.27-3.75c1.35-0.54,4.03-0.17,3.76-1.92
			c-0.36-2.32-2.55-0.55-3.51-0.59c-2.04,0.22-2.1-1.09-2.45-2.06c-2.32-6.53-4.56-13.08-6.93-19.58c-0.84-2.32-1.65-4.4,1.72-5.32
			c0.93-0.25,1.39-1.07,0.99-2.02c-0.6-1.42-1.45-0.22-2.08-0.01c-4.03,1.35-8.04,2.77-12.04,4.2c-0.71,0.25-2.04,0.01-1.81,1.26
			C662.42,111.8,663.53,112.11,664.54,111.66z"/>
		<path class="st6" d="M556.53,182.66c1.76-0.57,1.22-2.17,0.89-3.42c-0.88-3.39-1.87-6.76-3.04-10.96c3.27,2.79,5.8,5.19,8.58,7.24
			c1.54,1.14,3.29,3.01,5.52,1.37c2.09-1.54,2.46-3.89,1.97-6.27c-1.27-6.23-4.52-11.24-9.73-14.91c-1.02-0.72-2.3-2.15-3.49-0.98
			c-1.08,1.06,0.47,2.17,1.05,3.11c2.52,4.11,5.72,7.84,6.55,13.18c-1.52-1.18-3-2.41-4.56-3.54c-2.36-1.71-4.73-3.42-7.18-5
			c-1.43-0.92-2.74-0.56-2.85,1.31c-0.35,5.91,0.58,11.64,3.07,17.05C553.9,182.11,555.05,183.14,556.53,182.66z"/>
		<path class="st6" d="M571,157.77c4.51,0.47,3.66,2.65,1.67,5.19c-0.31,0.4-0.64,0.85-0.3,1.28c1.51,1.94,0.86,4.19,1.06,6.33
			c0.41,4.47,4.43,6.66,8.45,4.67c2.81-1.4,4.77-3.7,6.52-6.22c0.65-0.93,1.29-1.83,0.36-2.93c-0.86-1.03-1.89-0.94-2.95-0.4
			c-2.26,1.14-4.51,2.3-7.01,3.58c-1.08-3.44-0.45-5.58,3.12-6.09c0.59-0.09,1.17-0.34,1.72-0.59c1.32-0.61,2.94-1.16,2.08-3.13
			c-0.78-1.77-2.25-0.86-3.49-0.64c-0.47,0.09-0.91,0.42-1.38,0.46c-0.87,0.07-2.05,1.62-2.56-0.36c-0.34-1.33,0.08-2.29,1.57-2.78
			c1.84-0.61,3.64-1.37,5.39-2.2c0.83-0.39,1.98-0.8,1.88-1.97c-0.1-1.21-1.19-1.72-2.2-2.2c-1.2-0.56-2.4-0.43-3.53,0.09
			c-3.64,1.68-7.25,3.4-10.86,5.14c-0.63,0.3-1.46,0.63-1.19,1.56C569.55,157.29,570.26,157.69,571,157.77z"/>
		<path class="st7" d="M509.64,168.57c1.63,1.57,2.15,5.26,4.5,0.65c0.2-0.4,1.35-0.31,2.06-0.46c5.28-1.15,10.78-7.94,10.78-13.32
			c0-1.95-0.43-3.74-2.62-4.26c-1.86-0.44-3.78-0.64-6.01-0.99c-0.14,0.02-0.62,0.08-1.1,0.18c-4.98,1.05-8.01,4.39-10.03,8.78
			C505.5,162.88,506.72,165.78,509.64,168.57z M520.15,155.13c0.91-0.83,2.07-1.62,3.24-0.79c1.14,0.8,0.93,2.21,0.47,3.34
			c-1.57,3.83-4.52,5.98-9.04,7.07C515.85,160.59,517.49,157.56,520.15,155.13z M513.93,156.4c-1.31,2.71-2.41,4.99-3.56,7.36
			C509.04,161.09,510.11,158.73,513.93,156.4z"/>
		<path class="st8" d="M518.19,172.41c-1.02,0.13-1.25,0.98-1.12,1.83c0.3,1.92,0.58,3.87,1.15,5.71c1.26,4.06,2.63,8.09,4.08,12.09
			c0.61,1.69,1.86,2.52,3.76,1.79c1.38-0.53,1.86-1.45,1.38-2.87c-1.89-5.66-4.07-11.2-6.7-16.55
			C520.27,173.46,519.58,172.52,518.19,172.41z"/>
		<path class="st9" d="M624.92,145.36c1.54-0.17,2.33-1.24,2.2-2.77c-0.13-1.55-1.11-2.32-2.79-2.36c-1.4,0.24-2.37,1.17-2.31,2.65
			C622.1,144.51,623.18,145.55,624.92,145.36z"/>
	</g>
</g>
<g id="bg" class="st0">
	<rect class="st1" width="1366" height="768"/>
</g>
<g id="head_outline">
	<g>
		<g>
			<path class="st2" d="M587.82,334.53c14.06,15.16,27.22,31.16,42.28,45.4c1.83,1.73,3.15,2.32,5.53,1.32
				c3.28-1.38,6.84-2.08,10.11-3.56c0.64-0.29,1.03-0.49,0.67-1.41c-3.36-8.36-6.76-16.7-9.93-25.13
				c-8.32-22.12-16.71-44.22-25.24-66.26c-1.01-2.6-1.01-2.58-3.61-1.63c-4.92,1.82-9.94,3.37-14.78,5.41
				c-0.96,0.4-1.17,0.79-0.74,1.83c6.3,15.08,12.1,30.37,18.62,45.36c0.58,1.34,1.18,2.71,1.49,4.33
				c-7.96-7.2-14.99-15.07-21.91-23.03c-4.55-5.22-9.04-10.5-13.79-15.54c-0.42-0.45-0.74-1.05-1.6-0.7
				c-3.84,1.53-7.79,2.76-11.59,4.4c-0.79,0.34-0.91,0.7-0.61,1.47c0.97,2.46,1.85,4.96,2.8,7.43
				c4.78,12.54,10.21,24.83,14.24,37.65c3.79,12.06,8.51,23.78,13,35.58c0.36,0.96,0.71,1.23,1.77,0.85
				c3.02-1.09,5.97-2.33,8.83-3.78c0.75-0.38,0.98-0.71,0.67-1.58c-4.35-12.15-8.25-24.47-12.77-36.56
				c-1.59-4.25-3.15-8.51-4.79-12.97C587.25,333.68,587.49,334.17,587.82,334.53z"/>
			<path class="st2" d="M753.14,411.14c-4.03-14.66-9.23-28.92-14.5-43.17c-2.88-7.8-5.81-15.57-9.1-23.21
				c-0.27-0.62-0.38-1.31-1.44-0.94c-3.41,1.21-6.86,2.32-10.19,3.77c-0.71,0.31-0.85,0.55-0.5,1.31c1.16,2.53,2.28,5.09,3.3,7.68
				c5.92,14.99,10.83,30.35,16.71,45.35c2.19,5.59,3.89,11.31,4.29,17.38c0.22,3.38-1.16,5.62-3.89,7.26
				c-3.17,1.9-6.66,2.76-10.3,3.16c-2.4,0.26-4.13-0.69-5.46-2.61c-1.3-1.89-2.19-3.98-3.07-6.08c-3.74-8.91-6.75-18.1-10.12-27.14
				c-4.19-11.22-9.17-22.14-12.7-33.61c-0.3-0.97-0.78-0.62-1.35-0.43c-5.32,1.8-10.62,3.67-15.98,5.35
				c-1.41,0.44-1.55,0.88-1.03,2.16c3.93,9.68,7.9,19.35,11.65,29.09c4.24,11,7.72,22.29,11.96,33.3c1.51,3.92,3.3,7.68,5.98,10.96
				c3.24,3.97,7.34,6.55,12.53,6.62c9.64,0.12,18.71-2.29,26.89-7.41c5.83-3.65,8.84-9.01,8.44-15.98
				C755.41,419.49,754.29,415.31,753.14,411.14z"/>
			<path class="st2" d="M684.86,409.92c-2.73-6.97-5.86-13.74-9.93-20.06c-3.76-5.85-9.18-8.15-15.91-7.74
				c-6.3,0.39-12.24,2.16-17.86,4.97c-5.44,2.72-9.45,6.79-11.6,12.6c-1.71,4.65-2.32,9.43-1.28,14.25
				c3.41,15.84,8.82,30.96,16.76,45.12c1.82,3.25,4.08,6.2,6.77,8.81c3.74,3.64,8.26,5.26,13.36,4.67
				c8.18-0.94,15.87-3.62,22.82-7.99c5.62-3.53,8.41-8.89,8.3-15.62c-0.03-2.85-0.47-5.65-1.13-8.41
				C692.61,430.02,688.78,419.95,684.86,409.92z M680.33,453.72c-3.05,2.62-6.72,3.71-10.74,3.43c-2.78-0.19-4.9-1.57-6.39-3.93
				c-2.22-3.5-4.02-7.23-5.66-11.02c-4.15-9.59-8-19.31-10.63-29.45c-0.42-1.62-0.67-3.28-0.69-5.4c-0.16-2.25,0.98-4.23,3.29-5.56
				c3.14-1.81,6.53-2.89,10.12-3.35c2.94-0.38,5.12,0.72,6.68,3.27c2.17,3.54,3.86,7.31,5.4,11.15c3.79,9.43,7.61,18.86,10.6,28.6
				c0.44,1.42,0.74,2.88,0.92,4.36C683.59,448.93,682.69,451.69,680.33,453.72z"/>
			<path class="st2" d="M629.73,275.49c-5.15,4.53-6.91,10.44-6.19,17.12c0.7,6.47,2.65,12.63,5.22,18.58
				c1.67,3.87,3.98,7.35,7.15,10.2c4.32,3.88,9.23,5.49,15.05,4.14c4.21-0.97,8.48-1.74,12.82-1.74c6.56,0.01,10.75,3.05,12.87,9.27
				c0.28,0.83,0.53,1.69,0.71,2.55c1.05,5.04-0.7,8.51-5.35,10.66c-1.6,0.74-3.27,1.33-4.99,1.75c-5.2,1.28-8.39-0.3-10.46-5.25
				c-0.95-2.27-1.82-4.57-2.68-6.88c-0.25-0.67-0.48-0.84-1.2-0.56c-3.56,1.35-7.14,2.64-10.73,3.92c-0.57,0.2-0.85,0.35-0.56,1.06
				c1.8,4.44,3.66,8.83,6.13,12.96c3.25,5.44,8.07,8.02,14.28,7.76c8.63-0.36,16.62-2.89,23.75-7.85c2.54-1.77,4.65-3.99,6.21-6.7
				c1.77-3.09,2.36-6.32,1.26-9.78c-0.47-1.46-0.87-2.94-1.35-4.39c-1.98-5.95-4.15-11.82-7.06-17.41
				c-2.03-3.88-5.17-6.07-9.42-6.87c-2.34-0.44-4.7-0.56-7.07-0.58c-5.07-0.04-10.12,0.45-15.18,0.65c-1.25,0-2.52,0.09-3.76-0.02
				c-2.42-0.21-4.56-1.11-5.86-3.27c-2.94-4.92-4.86-10.22-5.6-15.92c-0.17-1.31,0.13-2.57,1.13-3.45
				c3.47-3.08,7.53-4.51,12.18-3.95c2.4,0.29,3.49,2.14,4.32,4.11c1.75,4.15,3.42,8.34,5.13,12.5c0.94,2.28,0.94,2.26,3.18,1.38
				c4.45-1.74,8.92-3.45,13.38-5.18c0.59-0.23,1.2-0.35,0.79-1.35c-2.25-5.5-4.25-11.1-6.79-16.48c-1.43-3.03-3.4-5.64-6.03-7.74
				c-1.73-1.38-3.65-2.42-5.88-2.71C647.85,264.56,638.13,268.09,629.73,275.49z"/>
			<path class="st2" d="M697.08,254.53c-1,0.36-0.65,0.88-0.4,1.49c3,7.25,5.76,14.6,8.51,21.94c7.34,19.61,14.78,39.18,22.35,58.7
				c0.23,0.59,0.34,0.96,1.14,0.68c7.07-2.43,14.22-4.62,21.21-7.25c8.53-3.2,14.78-8.79,17.24-17.94c0.87-3.25,1.35-6.55,1.39-9.92
				c-0.1-1.48-0.11-2.98-0.31-4.45c-1.07-8.02-3.59-15.64-6.47-23.15c-2.6-6.78-5.47-13.48-10.09-19.15
				c-7.42-9.12-16.76-13.45-28.58-10.12C714.23,247.87,705.72,251.4,697.08,254.53z M734.13,260.27c2.46,1.85,4.35,4.23,5.66,6.97
				c4.97,10.39,8.53,21.26,11.1,32.48c0.22,0.94,0.21,1.93,0.31,2.9c-0.01,5.12-2.2,8.89-6.7,11.39c-3.04,1.69-6.31,2.68-9.64,3.55
				c-0.72,0.19-1.06,0.02-1.33-0.71c-6.44-17.71-12.9-35.42-19.39-53.11c-0.29-0.78-0.18-1.13,0.6-1.47
				c3.31-1.48,6.69-2.78,10.17-3.78C728.28,257.51,731.35,258.18,734.13,260.27z"/>
			<path class="st2" d="M838.99,276.94c-0.27-0.87-0.82-0.35-1.23-0.22c-5.13,1.66-10.23,3.43-15.09,5.74
				c-10.28,4.88-21.16,8.06-31.96,11.48c-0.62,0.2-0.98,0.26-1.26-0.49c-2.15-5.74-4.29-11.48-5.9-17.41
				c-0.24-0.89-0.14-1.4,0.83-1.82c2.51-1.09,4.97-2.31,7.44-3.5c5.99-2.88,12.16-5.33,18.45-7.48c1.35-0.46,1.54-0.96,0.98-2.25
				c-0.83-1.91-1.42-3.93-2.11-5.9c-0.37-1.05-0.44-2.54-1.18-3.04c-0.86-0.58-2.05,0.57-3.15,0.83c-7.21,1.68-14.16,4.15-20.94,7.1
				c-0.78,0.34-1.03,0.1-1.31-0.6c-1.86-4.76-3.74-9.51-5.64-14.25c-0.26-0.64-0.24-0.96,0.48-1.26c7.52-3.08,14.87-6.58,22.59-9.14
				c0.94-0.31,0.82-0.64,0.52-1.36c-2.22-5.27-4.18-10.63-5.86-16.09c-0.44-1.43-0.95-1.49-2.21-1.11
				c-5.57,1.68-10.85,4.13-16.23,6.29c-7.46,2.99-15.09,5.53-22.49,8.65c-1.02,0.43-1.26,0.78-0.78,1.89
				c2.5,5.85,4.97,11.71,7.29,17.64c7.9,20.15,14.93,40.62,22.15,61.01c0.23,0.64,0.23,1.29,1.34,0.92
				c4.93-1.65,9.88-3.25,14.86-4.74c14.94-4.48,28.22-12.85,42.78-18.22c0.34-0.13,0.56-0.34,0.49-0.55
				C840.8,284.91,840.22,280.85,838.99,276.94z"/>
			<path class="st2" d="M795.29,385.88c-4.75-13.59-9.31-27.24-14.03-40.84c-0.47-1.36-0.17-1.87,1.09-2.29
				c1.45-0.49,2.83-1.17,4.26-1.71c5.59-2.14,11.2-4.25,16.79-6.39c0.38-0.15,0.98-0.09,0.99-0.74c-0.08-0.19-0.15-0.36-0.21-0.54
				c-1.34-3.66-2.51-7.39-3.58-11.14c-0.31-1.1-0.6-1.33-1.75-0.87c-18.62,7.45-37.23,14.95-56.21,21.45
				c-1.49,0.51-2.92,1.18-4.39,1.76c-0.68,0.27-0.91,0.61-0.57,1.37c2.14,4.84,3.82,9.87,5.6,14.85c0.25,0.71,0.53,0.94,1.31,0.67
				c1.93-0.68,3.89-1.25,5.83-1.89c4.5-1.48,8.92-3.2,13.52-4.36c0.9-0.23,1.31-0.03,1.62,0.87c1.04,2.98,2.15,5.94,3.28,8.89
				c8.27,21.59,16.88,43.06,23.74,65.17c1.8,5.81,3.78,11.56,5.93,17.26c0.21,0.57,0.21,1.27,1.27,0.86
				c4.72-1.83,9.48-3.55,14.21-5.35c1.75-0.67,1.7-0.71,1.11-2.41C808.78,422.18,801.68,404.16,795.29,385.88z"/>
			<path class="st2" d="M579.65,374.24c-4.56-13.26-10.01-26.19-14.79-39.37c-5.43-14.97-11.42-29.73-16.7-44.75
				c-1.88-5.34-3.62-10.73-5.45-16.09c-0.13-0.39-0.09-0.97-0.7-1.07c-0.15,0.05-0.28,0.1-0.41,0.15
				c-5.33,2.05-10.91,3.37-16.2,5.54c-1.39,0.57-1.46,1.08-0.97,2.37c11.52,30.29,23.43,60.43,34.66,90.82
				c3.67,9.93,7.69,19.72,11.73,29.51c0.21,0.5,0.16,1.38,1.25,0.89c4.61-2.09,9.43-3.67,14.13-5.55c0.82-0.33,1.03-0.63,0.69-1.52
				C584.23,388.28,582.04,381.22,579.65,374.24z"/>
			<path class="st2" d="M689.16,257.46c-0.13-0.35-0.11-0.88-0.63-0.86c-0.36,0.09-0.63,0.16-0.9,0.23c-4.4,1.19-8.62,2.9-12.88,4.5
				c-1.01,0.38-1.1,0.73-0.69,1.67c7.96,18.33,14.57,37.17,21.26,55.97c2.85,8,5.61,16.04,8.45,24.05c0.16,0.44,0.02,1.31,1.1,0.93
				c4.51-1.6,9.02-3.16,13.35-5.23c0.74-0.36,1.01-0.64,0.68-1.54c-7.14-19.24-14.21-38.5-21.35-57.73
				C694.81,272.1,691.96,264.79,689.16,257.46z"/>
			<path class="st2" d="M593.44,256.29c-0.15-0.6-0.71-0.1-0.91-0.52c0.52-0.51,1.19-0.74,1.82-0.99c5.7-2.28,11.43-2.14,17.15-0.14
				c1.5,0.53,2.83,1.4,3.94,2.56c1.72,1.81,1.81,4.13,0.19,6.03c-1.91,2.24-4.5,3.19-7.27,3.79c-0.55,0.12-0.74-0.15-0.9-0.6
				c-0.48-1.36-0.95-2.72-1.49-4.05c-0.24-0.59-0.1-0.83,0.48-0.99c1.17-0.32,2.34-0.59,3.55-0.66c1.84-0.1,1.87-0.06,1.21,1.59
				c1.18,0.1,1.9-0.37,2.09-1.42c0.2-1.14-0.47-1.76-1.43-2.06c-1.81-0.57-3.64-0.33-5.32,0.38c-1.4,0.59-1.9,0.13-2.19-1.15
				c-0.13-0.58-0.38-1.15-0.86-1.57c-0.28-0.24-0.58-0.58-0.96-0.4c-0.34,0.16-0.21,0.58-0.17,0.88c0.13,0.87,0.22,1.76,0.48,2.59
				c0.25,0.77,0.07,1.17-0.62,1.56c-1.3,0.73-2.49,1.63-3.35,2.89c-0.66,0.97-0.6,1.77,0.45,2.47c1.46,0.97,3.04,1.64,4.75,1.9
				c1.08,0.17,1.95,0.41,2.4,1.52c0.16,0.39,0.53,0.67,1.03,0.49c0.39-0.14,0.93-0.29,0.84-0.78c-0.19-1.01,0.55-0.89,1.09-0.99
				c1.9-0.33,3.71-0.91,5.33-1.95c2.47-1.6,4.5-3.58,4.39-6.8c-0.11-3.14-2.27-4.87-4.78-6.18c-4.03-2.1-8.37-2.68-12.85-2.34
				c-3.34,0.26-6.48,1.18-9.27,3.11c-0.8,0.55-1.15,1.49-0.63,2.16C592.09,257.22,592.93,256.74,593.44,256.29z M604.17,267.16
				c-1.59-0.09-3.02-0.43-4.35-1.17c-0.71-0.4-0.89-0.86-0.12-1.32c1.11-0.67,2.27-1.25,3.4-1.9c0.6-0.35,0.71,0.04,0.84,0.48
				c0.29,0.98,0.58,1.96,0.91,2.92C605.1,266.93,605.02,267.35,604.17,267.16z"/>
			<path class="st2" d="M711.64,218.52c1.06-0.5,1.34,0.14,1.62,0.98c0.82,2.46,1.68,4.91,2.56,7.35c0.31,0.85,0.4,1.5-0.69,1.78
				c-0.32,0.08-0.62,0.29-0.47,0.71c0.24,0.62,0.63,0.15,0.91,0.06c1.49-0.5,2.98-1.03,4.46-1.56c0.29-0.1,0.75-0.06,0.68-0.51
				c-0.08-0.49-0.52-0.51-0.88-0.35c-1,0.44-1.31-0.15-1.54-0.95c-0.14-0.49-0.4-0.95-0.5-1.44c-0.11-0.58-0.87-1.15-0.2-1.74
				c0.67-0.6,1.28-0.04,1.87,0.29c1.78,1,3.57,1.98,5.44,2.79c0.8,0.35,1.5,0.39,2.32-0.37c-1.99-1.22-3.83-2.46-5.61-3.77
				c-0.87-0.64-1.22-1.11-0.48-2.17c0.68-0.99,1.04-2.25,0.15-3.38c-0.84-1.07-2.03-0.97-3.2-0.74c-2.33,0.47-4.51,1.4-6.74,2.18
				c-0.28,0.1-0.72,0.1-0.53,0.6C710.98,218.68,711.35,218.66,711.64,218.52z M717.07,216.99c1.38,0.01,2.2,0.69,2.3,1.9
				c0.1,1.22-1.02,2.75-2.11,2.96c-0.52,0.1-0.52-0.27-0.62-0.54c-0.32-0.87-0.6-1.75-0.89-2.63
				C715.27,217.21,715.45,216.98,717.07,216.99z"/>
			<path class="st2" d="M700.57,234.65c1.18-0.41,2.36-0.83,3.54-1.24c0.24-0.09,0.64-0.07,0.56-0.45
				c-0.07-0.35-0.36-0.55-0.74-0.42c-0.89,0.31-1.03-0.2-1.06-0.9c-0.02-0.51-0.07-1.02-0.13-1.76c-0.53-1.29,0.27-1.87,1.57-2.4
				c1.21-0.49,2.04-0.5,2.73,0.71c0.32,0.56,0.77,1.05,1.19,1.54c0.5,0.58,0.8,1.07-0.23,1.38c-0.36,0.11-0.55,0.36-0.43,0.74
				c0.19,0.59,0.55,0.14,0.77,0.06c1.54-0.51,3.06-1.07,4.59-1.61c0.25-0.09,0.62-0.05,0.58-0.44c-0.04-0.4-0.36-0.55-0.71-0.42
				c-1.01,0.37-1.56-0.26-2.1-0.91c-1.8-2.18-3.6-4.37-5.4-6.56c-0.37-0.45-0.95-0.92,0.06-1.35c0.31-0.13,0.3-0.45,0.15-0.71
				c-0.17-0.28-0.4-0.09-0.61-0.02c-1.49,0.52-2.98,1.03-4.47,1.55c-0.21,0.07-0.47,0.13-0.43,0.45c0.04,0.32,0.24,0.54,0.56,0.43
				c0.94-0.3,0.84,0.31,0.82,0.89c-0.09,2.92-0.19,5.85-0.27,8.77c-0.02,0.82-0.05,1.59-1.02,1.89c-0.39,0.12-0.49,0.45-0.29,0.77
				C700.03,234.97,700.33,234.73,700.57,234.65z M702.57,225.82c0.09-0.91,0.02-1.83,0.02-2.75c0.1-0.04,0.21-0.08,0.31-0.12
				c0.45,0.57,0.9,1.14,1.35,1.71c1.1,1.4,1.09,1.37-0.59,1.92C702.84,226.87,702.47,226.83,702.57,225.82z"/>
			<path class="st2" d="M683.56,228.27c0.52-0.08,0.99-0.08,1.46,0.23c1.39,0.92,2.81,1.81,4.21,2.71c0.32,0.2,0.69,0.42,0.48,0.87
				c-1.02,2.18-0.93,4.87-3.04,6.55c-0.21,0.17-0.28,0.41-0.18,0.62c0.17,0.37,0.44,0.16,0.7,0.07c1.14-0.4,2.27-0.8,3.41-1.19
				c0.26-0.09,0.61-0.1,0.58-0.47c-0.03-0.43-0.35-0.48-0.71-0.43c-0.23,0.04-0.46,0.08-0.69-0.14c0.29-1.55,0.56-3.13,1.13-4.75
				c2.17,1.27,4.19,2.59,6.42,3.53c0.77,0.32,1.41,0.37,2.07-0.43c-2.34-1.63-4.63-3.21-6.91-4.81c-0.3-0.21-0.91-0.36-0.65-0.9
				c0.85-1.77,0.99-3.9,2.66-5.24c0.26-0.21,0.37-0.42,0.25-0.71c-0.16-0.4-0.45-0.18-0.69-0.09c-1.05,0.36-2.1,0.72-3.15,1.09
				c-0.2,0.07-0.51,0.09-0.5,0.38c0.02,0.29,0.21,0.54,0.54,0.51c0.38-0.03,0.81-0.16,0.64,0.48c-0.28,1.04-0.58,2.07-0.9,3.22
				c-1.16-0.79-2.17-1.42-3.02-2.3c0.15-0.13,0.24-0.25,0.36-0.31c0.36-0.17,0.72-0.39,0.51-0.83c-0.24-0.5-0.63-0.08-0.91,0.01
				c-1.36,0.45-2.72,0.94-4.07,1.43c-0.22,0.08-0.62,0-0.58,0.42C683.04,228.08,683.21,228.33,683.56,228.27z"/>
			<path class="st2" d="M648.74,255.45c0.1,1.06,0.27,2.12,0.44,3.17c0.13,0.8,0.6,1.34,1.36,1.63c0.71,0.27,1.19,0.24,1.01-0.75
				c-0.33-1.83-0.43-3.69-0.47-5.55c-0.02-0.8,0.16-1.28,1.01-1.69c2.85-1.36,4.03-5.82,2.23-8c-1.17-1.42-2.01-1.39-3.06,0.11
				c-1.1,1.58-1.58,3.42-2.2,5.43c-1.18-2.09,0.64-4.15-0.42-6.31c-1.2,2.33-2.03,4.65-0.88,6.79
				C648.7,252.03,648.58,253.71,648.74,255.45z M653.03,244.79c1.53,1.72,0.86,4.04-1.56,5.26
				C651.68,248.15,652.17,246.45,653.03,244.79z"/>
			<path class="st2" d="M664.23,235.03c0.97-0.4,1.27,0.12,1.54,0.94c0.8,2.43,1.63,4.84,2.52,7.23c0.34,0.93,0.52,1.67-0.69,2.03
				c-0.36,0.11-0.54,0.41-0.34,0.76c0.19,0.33,0.47,0.13,0.73,0.03c1.66-0.59,3.33-1.17,4.99-1.76c0.28-0.1,0.76-0.06,0.67-0.51
				c-0.09-0.47-0.54-0.5-0.9-0.34c-1.37,0.64-1.79-0.15-2.06-1.28c-0.14-0.58-0.35-1.15-0.52-1.72c-0.87-1.84-1.35-3.82-2.07-5.71
				c-0.3-0.79,0.06-0.97,0.72-1.07c1.05-0.15,1.96,0.08,2.5,1.06c0.6,1.09,0.67,2.21-0.11,3.26c-0.22,0.29-0.56,0.49-0.77,0.79
				c-0.24,0.33-0.44,0.68-0.16,0.86c0.12,0.05,0.28,0.09,0.49,0.13c1.05-0.83,2.19-1.56,2.84-2.81c0.64-1.24,0.8-2.51,0.01-3.71
				c-0.77-1.17-2.01-1.22-3.25-1.02c-2.22,0.35-4.27,1.27-6.37,1.98c-0.28,0.09-0.74,0.1-0.64,0.55
				C663.44,235.23,663.87,235.18,664.23,235.03z"/>
			<path class="st2" d="M622.53,256.15c0.38,0.96,1.21,0.62,1.92,0.62c0.31-0.25,0.68-0.3,1.07-0.3c0,0,0,0,0,0
				c0.54-0.31,1.15-0.39,1.76-0.48c0.49-0.09,0.98-0.21,1.48-0.27c0.5-0.06,1.09-0.09,1.35,0.41c0.29,0.56-0.21,0.89-0.6,1.21
				c-0.29,0.4-0.68,0.64-1.14,0.79c-0.7,0.45-1.45,0.81-2.26,0.99c-0.53,0.12-1.25,0.34-1.34-0.42c-0.08-0.7,0.67-0.75,1.22-0.79
				c0.69-0.05,1.38-0.05,2.07-0.07c0.38-0.27,0.77-0.55,1.15-0.82c0.01-0.17,0.01-0.34,0.02-0.51c-1.14-0.26-2.24,0.08-3.35,0.26
				c-0.28,0.1-0.55,0.2-0.83,0.3c0,0,0,0,0,0c-0.65,0.49-1.29,1.02-1.02,1.94c0.25,0.86,1.02,1.19,1.8,1.35
				c2.01,0.41,3.76-0.14,5.22-1.59c0.91-0.91,0.93-1.96,0.43-3.08c-0.47-1.06-1.39-1.34-2.41-1.25c-0.87,0.08-1.72,0.35-2.58,0.54
				c-0.78,0.17-1.55,0.5-2.63,0.3c0.75-0.68,1.43-1.04,2.13-1.36c1.09-0.5,2.19-0.99,3.28-1.51c0.47-0.22,1.02-0.54,0.86-1.11
				c-0.16-0.59-0.8-0.33-1.21-0.28c-2.23,0.28-4.17,1.17-5.8,2.73C622.4,254.44,622.16,255.23,622.53,256.15z"/>
			<path class="st2" d="M675.65,231.07c1.07-0.47,1.33,0.19,1.61,1.01c0.78,2.33,1.61,4.65,2.43,6.96c0.33,0.94,0.78,1.88-0.72,2.24
				c-0.31,0.07-0.41,0.37-0.28,0.68c0.16,0.4,0.44,0.19,0.69,0.09c1.31-0.48,2.63-0.92,3.92-1.43c0.52-0.21,1.54-0.06,1.44-0.73
				c-0.14-0.89-0.98-0.21-1.34-0.22c-0.78,0.08-0.8-0.42-0.93-0.79c-0.88-2.49-1.74-4.99-2.64-7.48c-0.32-0.89-0.63-1.68,0.66-2.03
				c0.35-0.1,0.53-0.41,0.38-0.77c-0.23-0.54-0.55-0.09-0.79,0c-1.54,0.51-3.07,1.06-4.6,1.6c-0.27,0.1-0.78,0-0.69,0.48
				C674.84,231.12,675.26,231.24,675.65,231.07z"/>
			<path class="st2" d="M634.42,258.17c0.67-0.22,0.46-0.83,0.34-1.31c-0.34-1.3-0.71-2.58-1.16-4.18c1.25,1.07,2.21,1.98,3.27,2.76
				c0.59,0.44,1.26,1.15,2.11,0.52c0.8-0.59,0.94-1.49,0.75-2.39c-0.48-2.38-1.72-4.29-3.71-5.69c-0.39-0.27-0.88-0.82-1.33-0.37
				c-0.41,0.4,0.18,0.83,0.4,1.19c0.96,1.57,2.18,2.99,2.5,5.03c-0.58-0.45-1.15-0.92-1.74-1.35c-0.9-0.65-1.8-1.31-2.74-1.91
				c-0.55-0.35-1.05-0.21-1.09,0.5c-0.13,2.26,0.22,4.44,1.17,6.51C633.41,257.96,633.85,258.35,634.42,258.17z"/>
			<path class="st2" d="M639.94,248.67c1.72,0.18,1.4,1.01,0.64,1.98c-0.12,0.15-0.24,0.33-0.12,0.49c0.58,0.74,0.33,1.6,0.4,2.42
				c0.16,1.7,1.69,2.54,3.23,1.78c1.07-0.53,1.82-1.41,2.49-2.38c0.25-0.35,0.49-0.7,0.14-1.12c-0.33-0.39-0.72-0.36-1.13-0.15
				c-0.86,0.44-1.72,0.88-2.68,1.37c-0.41-1.31-0.17-2.13,1.19-2.33c0.23-0.03,0.45-0.13,0.66-0.23c0.51-0.23,1.12-0.44,0.79-1.19
				c-0.3-0.68-0.86-0.33-1.33-0.24c-0.18,0.03-0.35,0.16-0.53,0.17c-0.33,0.03-0.78,0.62-0.98-0.14c-0.13-0.51,0.03-0.88,0.6-1.06
				c0.7-0.23,1.39-0.52,2.06-0.84c0.32-0.15,0.76-0.31,0.72-0.75c-0.04-0.46-0.46-0.66-0.84-0.84c-0.46-0.21-0.92-0.17-1.35,0.03
				c-1.39,0.64-2.77,1.3-4.15,1.96c-0.24,0.12-0.56,0.24-0.46,0.6C639.39,248.49,639.66,248.64,639.94,248.67z"/>
			<path class="st2" d="M616.52,252.79c0.62,0.6,0.82,2.01,1.72,0.25c0.08-0.15,0.52-0.12,0.79-0.18c2.01-0.44,4.11-3.03,4.11-5.09
				c0-0.75-0.17-1.43-1-1.63c-0.71-0.17-1.44-0.24-2.3-0.38c-0.05,0.01-0.24,0.03-0.42,0.07c-1.9,0.4-3.06,1.68-3.83,3.35
				C614.94,250.62,615.41,251.72,616.52,252.79z M620.53,247.66c0.35-0.32,0.79-0.62,1.24-0.3c0.43,0.31,0.36,0.84,0.18,1.27
				c-0.6,1.46-1.73,2.28-3.45,2.7C618.89,249.75,619.52,248.59,620.53,247.66z M618.16,248.15c-0.5,1.03-0.92,1.9-1.36,2.81
				C616.29,249.94,616.7,249.04,618.16,248.15z"/>
			<path class="st2" d="M619.78,254.26c-0.39,0.05-0.48,0.37-0.43,0.7c0.11,0.73,0.22,1.48,0.44,2.18c0.48,1.55,1.01,3.09,1.56,4.61
				c0.23,0.65,0.71,0.96,1.43,0.68c0.53-0.2,0.71-0.55,0.53-1.1c-0.72-2.16-1.56-4.27-2.56-6.32
				C620.58,254.66,620.31,254.3,619.78,254.26z"/>
			<path class="st2" d="M660.52,243.93c0.59-0.07,0.89-0.47,0.84-1.06c-0.05-0.59-0.42-0.88-1.06-0.9
				c-0.53,0.09-0.91,0.45-0.88,1.01C659.45,243.61,659.86,244,660.52,243.93z"/>
		</g>
		<path class="st2" d="M566.12,718.56c0.57-1.63,1.1-3.28,1.24-5.35c-9.42,9.06-21.32,10.65-33.21,12.31
			c-0.97,0.13-1.98,0.48-2.81,1c-11.36,7.11-23.52,6.1-35.81,3.56c-18.92-3.91-34.94-13.51-49.77-25.44
			c-3.95-3.18-9.61-7.64-14.76-11.64c4.4,0.59,11,1,14.91-1.41C435,691,427.96,687.01,425,685c11,4,21.96,3.28,31.34-1.63
			c9.33-4.88,15.82-12.37,20.54-21.69c-2.95,2.93-5.8,5.98-8.87,8.78c-0.36,0.33-0.72,0.65-1.09,0.97
			c-8.83,7.8-19.37,13.42-31.45,12.68c-10.81-0.66-21.59-6.95-26.25-16.94c16.79,6.83,33.18,6.91,41.1-1.21
			c-7.31,3.05-17.29,5.69-26.04,1.82c4.72,0.23,10-1.53,13.72-2.77c13.65-4.54,21.31-18.4,26.42-30.87
			c5.99-14.61,9.9-30.06,11.6-45.76c2.19-20.2,1.11-41.25-0.67-61.46c-1.9-21.49-5.47-42.84-10.46-63.83
			c-3.73-15.69-9.34-31.01-12.13-46.85c-15.38-87.32,9.4-176.95,72.62-240.58c58.2-58.59,139.88-84.91,221.48-76.46
			c90.18,9.34,204.94,68.64,210.29,170.58c0.04,0.61,0.06,1.22,0.09,1.82c0.05,1,0.09,2.01,0.14,3.01
			c0.87,21.16,0.46,43.54-5.83,63.95c-0.64,2.06-1.36,4.13-2.58,5.91c0.96-9.88,1.19-20.33-6.36-27.77
			c5.45,23.05-2.05,41.95-13.07,60.24c2.91-28.99,0.51-56.2-23.56-77.03c0.64,4.33,1.28,8.65,1.91,12.98
			c2.08,14.22-0.05,28.21-2.09,42.24c-1.01,6.9-1.55,13.88-2.04,20.84c-0.87,12.3,4.59,21.45,14.43,28.4
			c8.84,6.25,17.6,12.61,26.37,18.97c1.88,1.37,3.73,2.83,5.38,4.46c8.43,8.33,9.48,15.36,2.23,24.7
			c-5.68,7.32-12.19,14.14-19.13,20.28c-5.67,5.01-8.2,10.66-7.95,17.91c0.05,1.49,0.32,2.98,0.55,4.45
			c2.2,13.96,1.49,15.37-10.86,22.18c-2.59,1.43-5.04,3.1-7.75,4.78c9.99,6.63,10.26,12.34,2.24,20.54
			c-6.15,6.29-12.52,12.67-17.22,20.01c-11.23,17.55-27.52,25.22-47.44,27.37c-23.99,2.6-47.08-1.83-69.91-8.41
			c-7.79-2.25-15.52-4.04-23.52-1.81c-11.31,3.16-18.56,13.32-18.3,25.02c0.09,4.11,1.56,7.06,5.59,8.46
			c4.55,1.58,9.07,3.25,13.62,4.82c20.81,7.18,25.47,29.37,26.67,48.86c1.84,29.37,2.17,58.76,4.7,87.93
			c0.38,4.37,0.81,8.73,1.3,13.09c0.24,0,581.24,0,581.24,0V0H0v768c0,0,549,0,548.78,0C554.55,751.52,560.34,735.04,566.12,718.56z
			"/>
	</g>
	<g>
	</g>
	<g>
	</g>
	<g>
	</g>
	<g>
	</g>
	<g>
	</g>
	<g>
	</g>
	<g>
	</g>
	<g>
	</g>
	<g>
	</g>
	<g>
	</g>
	<g>
	</g>
	<g>
	</g>
	<g>
	</g>
	<g>
	</g>
	<g>
	</g>
</g>
</svg>
