<?xml version="1.0" encoding="utf-8"?>
<!-- Generator: Adobe Illustrator 23.0.3, SVG Export Plug-In . SVG Version: 6.00 Build 0)  -->
<svg version="1.1" id="Layer_1" xmlns="http://www.w3.org/2000/svg" xmlns:xlink="http://www.w3.org/1999/xlink" x="0px" y="0px"
	 viewBox="0 0 750 1334" style="enable-background:new 0 0 750 1334;" xml:space="preserve">
<style type="text/css">
	.st0{fill:#FFFFFF;}
</style>
<g>
	<path class="st0" d="M201.13,649.69c25.68,27.69,49.72,56.92,77.23,82.93c3.34,3.16,5.75,4.24,10.1,2.41
		c5.99-2.52,12.49-3.8,18.47-6.5c1.17-0.53,1.88-0.9,1.22-2.58c-6.14-15.27-12.35-30.5-18.14-45.9
		c-15.2-40.4-30.52-80.77-46.1-121.03c-1.84-4.75-1.84-4.71-6.59-2.98c-8.99,3.32-18.16,6.16-27,9.88
		c-1.75,0.73-2.14,1.44-1.35,3.34c11.51,27.55,22.1,55.47,34.01,82.85c1.06,2.45,2.16,4.95,2.72,7.91
		c-14.54-13.15-27.38-27.53-40.02-42.07c-8.31-9.53-16.51-19.18-25.19-28.39c-0.77-0.82-1.35-1.92-2.92-1.28
		c-7.01,2.79-14.23,5.04-21.17,8.04c-1.44,0.62-1.66,1.28-1.11,2.69c1.77,4.49,3.38,9.06,5.11,13.57
		c8.73,22.91,18.65,45.35,26.01,68.77c6.92,22.03,15.54,43.44,23.75,64.99c0.66,1.75,1.3,2.25,3.23,1.55
		c5.52-1.99,10.9-4.26,16.13-6.9c1.37-0.69,1.79-1.3,1.22-2.89c-7.95-22.19-15.07-44.7-23.33-66.78c-2.9-7.76-5.75-15.54-8.75-23.69
		C200.09,648.14,200.53,649.04,201.13,649.69z"/>
	<path class="st0" d="M503.1,789.63c-7.36-26.78-16.86-52.83-26.49-78.85c-5.26-14.25-10.61-28.44-16.62-42.4
		c-0.49-1.13-0.69-2.39-2.63-1.72c-6.23,2.21-12.53,4.24-18.61,6.89c-1.3,0.57-1.55,1-0.91,2.39c2.12,4.62,4.16,9.3,6.03,14.03
		c10.81,27.38,19.78,55.44,30.52,82.84c4,10.21,7.11,20.66,7.84,31.75c0.4,6.17-2.12,10.27-7.11,13.26
		c-5.79,3.47-12.17,5.04-18.81,5.77c-4.38,0.47-7.54-1.26-9.97-4.77c-2.37-3.45-4-7.27-5.61-11.11
		c-6.83-16.28-12.33-33.06-18.49-49.57c-7.65-20.49-16.75-40.44-23.2-61.39c-0.55-1.77-1.42-1.13-2.47-0.79
		c-9.72,3.29-19.4,6.7-29.19,9.77c-2.58,0.8-2.83,1.61-1.88,3.95c7.18,17.68,14.43,35.34,21.28,53.14
		c7.74,20.09,14.1,40.72,21.85,60.83c2.76,7.16,6.03,14.03,10.92,20.02c5.92,7.25,13.41,11.96,22.89,12.09
		c17.61,0.22,34.18-4.18,49.12-13.54c10.65-6.67,16.15-16.46,15.42-29.19C507.25,804.88,505.2,797.25,503.1,789.63z"/>
	<path class="st0" d="M378.38,787.4c-4.99-12.73-10.7-25.1-18.14-36.64c-6.87-10.69-16.77-14.89-29.06-14.14
		c-11.51,0.71-22.36,3.95-32.62,9.08c-9.94,4.97-17.26,12.4-21.19,23.02c-3.12,8.49-4.24,17.22-2.34,26.03
		c6.23,28.93,16.11,56.55,30.61,82.42c3.32,5.94,7.45,11.33,12.37,16.09c6.83,6.65,15.09,9.61,24.4,8.53
		c14.94-1.72,28.99-6.61,41.68-14.59c10.27-6.45,15.36-16.24,15.16-28.53c-0.05-5.21-0.86-10.32-2.06-15.36
		C392.54,824.12,385.54,805.72,378.38,787.4z M370.11,867.41c-5.57,4.79-12.27,6.78-19.62,6.27c-5.08-0.35-8.95-2.87-11.67-7.18
		c-4.06-6.39-7.34-13.21-10.34-20.13c-7.58-17.52-14.61-35.27-19.42-53.79c-0.77-2.96-1.22-5.99-1.26-9.86
		c-0.29-4.11,1.79-7.73,6.01-10.16c5.74-3.31,11.93-5.28,18.49-6.12c5.37-0.69,9.35,1.32,12.2,5.97c3.96,6.47,7.05,13.35,9.86,20.37
		c6.92,17.22,13.9,34.45,19.36,52.24c0.8,2.59,1.35,5.26,1.68,7.96C376.06,858.66,374.42,863.7,370.11,867.41z"/>
	<path class="st0" d="M277.68,541.85c-9.41,8.27-12.62,19.07-11.31,31.27c1.28,11.82,4.84,23.07,9.53,33.94
		c3.05,7.07,7.27,13.43,13.06,18.63c7.89,7.09,16.86,10.03,27.49,7.56c7.69-1.77,15.49-3.18,23.42-3.18
		c11.98,0.02,19.64,5.57,23.51,16.93c0.51,1.52,0.97,3.09,1.3,4.66c1.92,9.21-1.28,15.54-9.77,19.47c-2.92,1.35-5.97,2.43-9.11,3.2
		c-9.5,2.34-15.33-0.55-19.11-9.59c-1.74-4.15-3.32-8.35-4.9-12.57c-0.46-1.22-0.88-1.53-2.19-1.02c-6.5,2.47-13.04,4.82-19.6,7.16
		c-1.04,0.37-1.55,0.64-1.02,1.94c3.29,8.11,6.69,16.13,11.2,23.67c5.94,9.94,14.74,14.65,26.08,14.17
		c15.76-0.66,30.36-5.28,43.38-14.34c4.64-3.23,8.49-7.29,11.34-12.24c3.23-5.64,4.31-11.54,2.3-17.86
		c-0.86-2.67-1.59-5.37-2.47-8.02c-3.62-10.87-7.58-21.59-12.9-31.8c-3.71-7.09-9.44-11.09-17.21-12.55
		c-4.27-0.8-8.59-1.02-12.91-1.06c-9.26-0.07-18.49,0.82-27.73,1.19c-2.28,0-4.6,0.16-6.87-0.04c-4.42-0.38-8.33-2.03-10.7-5.97
		c-5.37-8.99-8.88-18.67-10.23-29.08c-0.31-2.39,0.24-4.69,2.06-6.3c6.34-5.63,13.75-8.24,22.25-7.22c4.38,0.53,6.37,3.91,7.89,7.51
		c3.2,7.58,6.25,15.23,9.37,22.83c1.72,4.16,1.72,4.13,5.81,2.52c8.13-3.18,16.29-6.3,24.44-9.46c1.08-0.42,2.19-0.64,1.44-2.47
		c-4.11-10.05-7.76-20.28-12.4-30.1c-2.61-5.53-6.21-10.3-11.01-14.14c-3.16-2.52-6.67-4.42-10.74-4.95
		C310.78,521.89,293.02,528.33,277.68,541.85z"/>
	<path class="st0" d="M400.7,503.57c-1.83,0.66-1.19,1.61-0.73,2.72c5.48,13.24,10.52,26.67,15.54,40.08
		c13.41,35.82,27,71.57,40.82,107.22c0.42,1.08,0.62,1.75,2.08,1.24c12.91-4.44,25.97-8.44,38.74-13.24
		c15.58-5.85,27-16.06,31.49-32.77c1.59-5.94,2.47-11.96,2.54-18.12c-0.18-2.7-0.2-5.44-0.57-8.13
		c-1.95-14.65-6.56-28.57-11.82-42.29c-4.75-12.38-9.99-24.62-18.43-34.98c-13.55-16.66-30.61-24.57-52.2-18.49
		C432.03,491.4,416.49,497.85,400.7,503.57z M468.38,514.05c4.49,3.38,7.95,7.73,10.34,12.73c9.08,18.98,15.58,38.83,20.28,59.33
		c0.4,1.72,0.38,3.53,0.57,5.3c-0.02,9.35-4.02,16.24-12.24,20.81c-5.55,3.09-11.53,4.9-17.61,6.48c-1.32,0.35-1.94,0.04-2.43-1.3
		c-11.76-32.35-23.56-64.7-35.42-97.01c-0.53-1.42-0.33-2.06,1.1-2.69c6.05-2.7,12.22-5.08,18.58-6.9
		C457.69,509.01,463.3,510.23,468.38,514.05z"/>
	<path class="st0" d="M659.92,544.5c-0.49-1.59-1.5-0.64-2.25-0.4c-9.37,3.03-18.69,6.27-27.56,10.48
		c-18.78,8.91-38.65,14.72-58.38,20.97c-1.13,0.37-1.79,0.47-2.3-0.9c-3.93-10.48-7.84-20.97-10.78-31.8
		c-0.44-1.63-0.26-2.56,1.52-3.32c4.58-1.99,9.08-4.22,13.59-6.39c10.94-5.26,22.21-9.74,33.7-13.66c2.47-0.84,2.81-1.75,1.79-4.11
		c-1.52-3.49-2.59-7.18-3.85-10.78c-0.68-1.92-0.8-4.64-2.16-5.55c-1.57-1.06-3.74,1.04-5.75,1.52
		c-13.17,3.07-25.86,7.58-38.25,12.97c-1.42,0.62-1.88,0.18-2.39-1.1c-3.4-8.69-6.83-17.37-10.3-26.03
		c-0.47-1.17-0.44-1.75,0.88-2.3c13.74-5.63,27.16-12.02,41.26-16.7c1.72-0.57,1.5-1.17,0.95-2.48c-4.05-9.63-7.64-19.42-10.7-29.39
		c-0.8-2.61-1.74-2.72-4.04-2.03c-10.17,3.07-19.82,7.54-29.65,11.49c-13.63,5.46-27.56,10.1-41.08,15.8
		c-1.86,0.79-2.3,1.42-1.42,3.45c4.57,10.69,9.08,21.39,13.32,32.22c14.43,36.81,27.27,74.2,40.46,111.44
		c0.42,1.17,0.42,2.36,2.45,1.68c9.01-3.01,18.05-5.94,27.14-8.66c27.29-8.18,51.55-23.47,78.14-33.28c0.62-0.24,1.02-0.62,0.9-1
		C663.22,559.06,662.16,551.64,659.92,544.5z"/>
	<path class="st0" d="M580.09,743.49c-8.68-24.82-17.01-49.76-25.63-74.6c-0.86-2.48-0.31-3.42,1.99-4.18
		c2.65-0.9,5.17-2.14,7.78-3.12c10.21-3.91,20.46-7.76,30.67-11.67c0.69-0.27,1.79-0.16,1.81-1.35c-0.15-0.35-0.27-0.66-0.38-0.99
		c-2.45-6.69-4.58-13.5-6.54-20.35c-0.57-2.01-1.1-2.43-3.2-1.59c-34.01,13.61-68,27.31-102.67,39.18
		c-2.72,0.93-5.33,2.16-8.02,3.21c-1.24,0.49-1.66,1.11-1.04,2.5c3.91,8.84,6.98,18.03,10.23,27.13c0.46,1.3,0.97,1.72,2.39,1.22
		c3.53-1.24,7.11-2.28,10.65-3.45c8.22-2.7,16.29-5.85,24.7-7.96c1.64-0.42,2.39-0.05,2.96,1.59c1.9,5.44,3.93,10.85,5.99,16.24
		c15.11,39.44,30.83,78.65,43.36,119.04c3.29,10.61,6.9,21.12,10.83,31.53c0.38,1.04,0.38,2.32,2.32,1.57
		c8.62-3.34,17.32-6.48,25.96-9.77c3.2-1.22,3.11-1.3,2.03-4.4C604.74,809.8,591.77,776.88,580.09,743.49z"/>
	<path class="st0" d="M186.21,722.23c-8.33-24.22-18.28-47.84-27.02-71.91c-9.92-27.34-20.86-54.3-30.5-81.74
		c-3.43-9.75-6.61-19.6-9.96-29.39c-0.24-0.71-0.16-1.77-1.28-1.95c-0.27,0.09-0.51,0.18-0.75,0.27
		c-9.74,3.74-19.93,6.16-29.59,10.12c-2.54,1.04-2.67,1.97-1.77,4.33c21.04,55.33,42.8,110.38,63.31,165.89
		c6.7,18.14,14.05,36.02,21.43,53.9c0.38,0.91,0.29,2.52,2.28,1.63c8.42-3.82,17.22-6.7,25.81-10.14c1.5-0.6,1.88-1.15,1.26-2.78
		C194.57,747.87,190.57,734.98,186.21,722.23z"/>
	<path class="st0" d="M386.24,508.92c-0.24-0.64-0.2-1.61-1.15-1.57c-0.66,0.16-1.15,0.29-1.64,0.42
		c-8.04,2.17-15.75,5.3-23.53,8.22c-1.84,0.69-2.01,1.33-1.26,3.05c14.54,33.48,26.61,67.89,38.83,102.24
		c5.21,14.61,10.25,29.3,15.43,43.93c0.29,0.8,0.04,2.39,2.01,1.7c8.24-2.92,16.48-5.77,24.39-9.55c1.35-0.66,1.84-1.17,1.24-2.81
		c-13.04-35.14-25.96-70.32-39-105.45C396.56,535.66,391.35,522.31,386.24,508.92z"/>
	<path class="st0" d="M211.39,506.78c-0.27-1.1-1.3-0.18-1.66-0.95c0.95-0.93,2.17-1.35,3.32-1.81c10.41-4.16,20.88-3.91,31.33-0.26
		c2.74,0.97,5.17,2.56,7.2,4.68c3.14,3.31,3.31,7.54,0.35,11.01c-3.49,4.09-8.22,5.83-13.28,6.92c-1,0.22-1.35-0.27-1.64-1.1
		c-0.88-2.48-1.74-4.97-2.72-7.4c-0.44-1.08-0.18-1.52,0.88-1.81c2.14-0.58,4.27-1.08,6.48-1.21c3.36-0.18,3.42-0.11,2.21,2.9
		c2.16,0.18,3.47-0.68,3.82-2.59c0.37-2.08-0.86-3.21-2.61-3.76c-3.31-1.04-6.65-0.6-9.72,0.69c-2.56,1.08-3.47,0.24-4-2.1
		c-0.24-1.06-0.69-2.1-1.57-2.87c-0.51-0.44-1.06-1.06-1.75-0.73c-0.62,0.29-0.38,1.06-0.31,1.61c0.24,1.59,0.4,3.21,0.88,4.73
		c0.46,1.41,0.13,2.14-1.13,2.85c-2.37,1.33-4.55,2.98-6.12,5.28c-1.21,1.77-1.1,3.23,0.82,4.51c2.67,1.77,5.55,3,8.68,3.47
		c1.97,0.31,3.56,0.75,4.38,2.78c0.29,0.71,0.97,1.22,1.88,0.9c0.71-0.26,1.7-0.53,1.53-1.42c-0.35-1.84,1-1.63,1.99-1.81
		c3.47-0.6,6.78-1.66,9.74-3.56c4.51-2.92,8.22-6.54,8.02-12.42c-0.2-5.74-4.15-8.9-8.73-11.29c-7.36-3.84-15.29-4.9-23.47-4.27
		c-6.1,0.47-11.84,2.16-16.93,5.68c-1.46,1-2.1,2.72-1.15,3.95C208.93,508.48,210.46,507.6,211.39,506.78z M230.99,526.64
		c-2.9-0.16-5.52-0.79-7.95-2.14c-1.3-0.73-1.63-1.57-0.22-2.41c2.03-1.22,4.15-2.28,6.21-3.47c1.1-0.64,1.3,0.07,1.53,0.88
		c0.53,1.79,1.06,3.58,1.66,5.33C232.69,526.22,232.55,526.98,230.99,526.64z"/>
	<path class="st0" d="M427.3,437.79c1.94-0.91,2.45,0.26,2.96,1.79c1.5,4.49,3.07,8.97,4.68,13.43c0.57,1.55,0.73,2.74-1.26,3.25
		c-0.58,0.15-1.13,0.53-0.86,1.3c0.44,1.13,1.15,0.27,1.66,0.11c2.72-0.91,5.44-1.88,8.15-2.85c0.53-0.18,1.37-0.11,1.24-0.93
		c-0.15-0.9-0.95-0.93-1.61-0.64c-1.83,0.8-2.39-0.27-2.81-1.74c-0.26-0.9-0.73-1.74-0.91-2.63c-0.2-1.06-1.59-2.1-0.37-3.18
		c1.22-1.1,2.34-0.07,3.42,0.53c3.25,1.83,6.52,3.62,9.94,5.1c1.46,0.64,2.74,0.71,4.24-0.68c-3.63-2.23-7-4.49-10.25-6.89
		c-1.59-1.17-2.23-2.03-0.88-3.96c1.24-1.81,1.9-4.11,0.27-6.17c-1.53-1.95-3.71-1.77-5.85-1.35c-4.26,0.86-8.24,2.56-12.31,3.98
		c-0.51,0.18-1.32,0.18-0.97,1.1C426.09,438.08,426.77,438.04,427.3,437.79z M437.22,434.99c2.52,0.02,4.02,1.26,4.2,3.47
		c0.18,2.23-1.86,5.02-3.85,5.41c-0.95,0.18-0.95-0.49-1.13-0.99c-0.58-1.59-1.1-3.2-1.63-4.8
		C433.93,435.4,434.26,434.98,437.22,434.99z"/>
	<path class="st0" d="M407.08,467.25c2.16-0.75,4.31-1.52,6.47-2.27c0.44-0.16,1.17-0.13,1.02-0.82c-0.13-0.64-0.66-1-1.35-0.77
		c-1.63,0.57-1.88-0.37-1.94-1.64c-0.04-0.93-0.13-1.86-0.24-3.21c-0.97-2.36,0.49-3.42,2.87-4.38c2.21-0.9,3.73-0.91,4.99,1.3
		c0.58,1.02,1.41,1.92,2.17,2.81c0.91,1.06,1.46,1.95-0.42,2.52c-0.66,0.2-1,0.66-0.79,1.35c0.35,1.08,1,0.26,1.41,0.11
		c2.81-0.93,5.59-1.95,8.38-2.94c0.46-0.16,1.13-0.09,1.06-0.8c-0.07-0.73-0.66-1-1.3-0.77c-1.84,0.68-2.85-0.47-3.84-1.66
		c-3.29-3.98-6.58-7.98-9.86-11.98c-0.68-0.82-1.74-1.68,0.11-2.47c0.57-0.24,0.55-0.82,0.27-1.3c-0.31-0.51-0.73-0.16-1.11-0.04
		c-2.72,0.95-5.44,1.88-8.16,2.83c-0.38,0.13-0.86,0.24-0.79,0.82s0.44,0.99,1.02,0.79c1.72-0.55,1.53,0.57,1.5,1.63
		c-0.16,5.33-0.35,10.69-0.49,16.02c-0.04,1.5-0.09,2.9-1.86,3.45c-0.71,0.22-0.9,0.82-0.53,1.41
		C406.09,467.84,406.64,467.4,407.08,467.25z M410.73,451.12c0.16-1.66,0.04-3.34,0.04-5.02c0.18-0.07,0.38-0.15,0.57-0.22
		c0.82,1.04,1.64,2.08,2.47,3.12c2.01,2.56,1.99,2.5-1.08,3.51C411.22,453.04,410.55,452.97,410.73,451.12z"/>
	<path class="st0" d="M376.01,455.6c0.95-0.15,1.81-0.15,2.67,0.42c2.54,1.68,5.13,3.31,7.69,4.95c0.58,0.37,1.26,0.77,0.88,1.59
		c-1.86,3.98-1.7,8.9-5.55,11.96c-0.38,0.31-0.51,0.75-0.33,1.13c0.31,0.68,0.8,0.29,1.28,0.13c2.08-0.73,4.15-1.46,6.23-2.17
		c0.47-0.16,1.11-0.18,1.06-0.86c-0.05-0.79-0.64-0.88-1.3-0.79c-0.42,0.07-0.84,0.15-1.26-0.26c0.53-2.83,1.02-5.72,2.06-8.68
		c3.96,2.32,7.65,4.73,11.73,6.45c1.41,0.58,2.58,0.68,3.78-0.79c-4.27-2.98-8.46-5.86-12.62-8.79c-0.55-0.38-1.66-0.66-1.19-1.64
		c1.55-3.23,1.81-7.12,4.86-9.57c0.47-0.38,0.68-0.77,0.46-1.3c-0.29-0.73-0.82-0.33-1.26-0.16c-1.92,0.66-3.84,1.32-5.75,1.99
		c-0.37,0.13-0.93,0.16-0.91,0.69c0.04,0.53,0.38,0.99,0.99,0.93c0.69-0.05,1.48-0.29,1.17,0.88c-0.51,1.9-1.06,3.78-1.64,5.88
		c-2.12-1.44-3.96-2.59-5.52-4.2c0.27-0.24,0.44-0.46,0.66-0.57c0.66-0.31,1.32-0.71,0.93-1.52c-0.44-0.91-1.15-0.15-1.66,0.02
		c-2.48,0.82-4.97,1.72-7.43,2.61c-0.4,0.15-1.13,0-1.06,0.77C375.06,455.25,375.37,455.71,376.01,455.6z"/>
	<path class="st0" d="M312.41,505.25c0.18,1.94,0.49,3.87,0.8,5.79c0.24,1.46,1.1,2.45,2.48,2.98c1.3,0.49,2.17,0.44,1.84-1.37
		c-0.6-3.34-0.79-6.74-0.86-10.14c-0.04-1.46,0.29-2.34,1.84-3.09c5.21-2.48,7.36-10.63,4.07-14.61c-2.14-2.59-3.67-2.54-5.59,0.2
		c-2.01,2.89-2.89,6.25-4.02,9.92c-2.16-3.82,1.17-7.58-0.77-11.53c-2.19,4.26-3.71,8.49-1.61,12.4
		C312.33,499,312.11,502.07,312.41,505.25z M320.24,485.77c2.79,3.14,1.57,7.38-2.85,9.61
		C317.78,491.91,318.67,488.81,320.24,485.77z"/>
	<path class="st0" d="M340.7,467.95c1.77-0.73,2.32,0.22,2.81,1.72c1.46,4.44,2.98,8.84,4.6,13.21c0.62,1.7,0.95,3.05-1.26,3.71
		c-0.66,0.2-0.99,0.75-0.62,1.39c0.35,0.6,0.86,0.24,1.33,0.05c3.03-1.08,6.08-2.14,9.11-3.21c0.51-0.18,1.39-0.11,1.22-0.93
		c-0.16-0.86-0.99-0.91-1.64-0.62c-2.5,1.17-3.27-0.27-3.76-2.34c-0.26-1.06-0.64-2.1-0.95-3.14c-1.59-3.36-2.47-6.98-3.78-10.43
		c-0.55-1.44,0.11-1.77,1.32-1.95c1.92-0.27,3.58,0.15,4.57,1.94c1.1,1.99,1.22,4.04-0.2,5.95c-0.4,0.53-1.02,0.9-1.41,1.44
		c-0.44,0.6-0.8,1.24-0.29,1.57c0.22,0.09,0.51,0.16,0.9,0.24c1.92-1.52,4-2.85,5.19-5.13c1.17-2.27,1.46-4.58,0.02-6.78
		c-1.41-2.14-3.67-2.23-5.94-1.86c-4.06,0.64-7.8,2.32-11.64,3.62c-0.51,0.16-1.35,0.18-1.17,1
		C339.26,468.31,340.04,468.22,340.7,467.95z"/>
	<path class="st0" d="M264.53,506.52c0.69,1.75,2.21,1.13,3.51,1.13c0.57-0.46,1.24-0.55,1.95-0.55l0,0
		c0.99-0.57,2.1-0.71,3.21-0.88c0.9-0.16,1.79-0.38,2.7-0.49s1.99-0.16,2.47,0.75c0.53,1.02-0.38,1.63-1.1,2.21
		c-0.53,0.73-1.24,1.17-2.08,1.44c-1.28,0.82-2.65,1.48-4.13,1.81c-0.97,0.22-2.28,0.62-2.45-0.77c-0.15-1.28,1.22-1.37,2.23-1.44
		c1.26-0.09,2.52-0.09,3.78-0.13c0.69-0.49,1.41-1,2.1-1.5c0.02-0.31,0.02-0.62,0.04-0.93c-2.08-0.47-4.09,0.15-6.12,0.47
		c-0.51,0.18-1,0.37-1.52,0.55l0,0c-1.19,0.9-2.36,1.86-1.86,3.54c0.46,1.57,1.86,2.17,3.29,2.47c3.67,0.75,6.87-0.26,9.53-2.9
		c1.66-1.66,1.7-3.58,0.79-5.63c-0.86-1.94-2.54-2.45-4.4-2.28c-1.59,0.15-3.14,0.64-4.71,0.99c-1.42,0.31-2.83,0.91-4.8,0.55
		c1.37-1.24,2.61-1.9,3.89-2.48c1.99-0.91,4-1.81,5.99-2.76c0.86-0.4,1.86-0.99,1.57-2.03c-0.29-1.08-1.46-0.6-2.21-0.51
		c-4.07,0.51-7.62,2.14-10.59,4.99C264.29,503.4,263.85,504.84,264.53,506.52z"/>
	<path class="st0" d="M361.56,460.71c1.95-0.86,2.43,0.35,2.94,1.84c1.42,4.26,2.94,8.49,4.44,12.71c0.6,1.72,1.42,3.43-1.32,4.09
		c-0.57,0.13-0.75,0.68-0.51,1.24c0.29,0.73,0.8,0.35,1.26,0.16c2.39-0.88,4.8-1.68,7.16-2.61c0.95-0.38,2.81-0.11,2.63-1.33
		c-0.26-1.63-1.79-0.38-2.45-0.4c-1.42,0.15-1.46-0.77-1.7-1.44c-1.61-4.55-3.18-9.11-4.82-13.66c-0.58-1.63-1.15-3.07,1.21-3.71
		c0.64-0.18,0.97-0.75,0.69-1.41c-0.42-0.99-1-0.16-1.44,0c-2.81,0.93-5.61,1.94-8.4,2.92c-0.49,0.18-1.42,0-1.26,0.88
		C360.08,460.8,360.85,461.02,361.56,460.71z"/>
	<path class="st0" d="M286.25,510.21c1.22-0.4,0.84-1.52,0.62-2.39c-0.62-2.37-1.3-4.71-2.12-7.64c2.28,1.95,4.04,3.62,5.97,5.04
		c1.08,0.8,2.3,2.1,3.85,0.95c1.46-1.08,1.72-2.72,1.37-4.37c-0.88-4.35-3.14-7.84-6.78-10.39c-0.71-0.49-1.61-1.5-2.43-0.68
		c-0.75,0.73,0.33,1.52,0.73,2.17c1.75,2.87,3.98,5.46,4.57,9.19c-1.06-0.82-2.1-1.68-3.18-2.47c-1.64-1.19-3.29-2.39-5-3.49
		c-1-0.64-1.92-0.38-1.99,0.91c-0.24,4.13,0.4,8.11,2.14,11.89C284.4,509.83,285.21,510.54,286.25,510.21z"/>
	<path class="st0" d="M296.33,492.86c3.14,0.33,2.56,1.84,1.17,3.62c-0.22,0.27-0.44,0.6-0.22,0.9c1.06,1.35,0.6,2.92,0.73,4.42
		c0.29,3.11,3.09,4.64,5.9,3.25c1.95-0.97,3.32-2.58,4.55-4.35c0.46-0.64,0.9-1.28,0.26-2.05c-0.6-0.71-1.32-0.66-2.06-0.27
		c-1.57,0.8-3.14,1.61-4.9,2.5c-0.75-2.39-0.31-3.89,2.17-4.26c0.42-0.05,0.82-0.24,1.21-0.42c0.93-0.42,2.05-0.8,1.44-2.17
		c-0.55-1.24-1.57-0.6-2.43-0.44c-0.33,0.05-0.64,0.29-0.97,0.31c-0.6,0.05-1.42,1.13-1.79-0.26c-0.24-0.93,0.05-1.61,1.1-1.94
		c1.28-0.42,2.54-0.95,3.76-1.53c0.58-0.27,1.39-0.57,1.32-1.37c-0.07-0.84-0.84-1.21-1.53-1.53c-0.84-0.38-1.68-0.31-2.47,0.05
		c-2.54,1.17-5.06,2.37-7.58,3.58c-0.44,0.22-1.02,0.44-0.84,1.1C295.33,492.53,295.82,492.81,296.33,492.86z"/>
	<path class="st0" d="M253.55,500.39c1.13,1.1,1.5,3.67,3.14,0.46c0.15-0.27,0.95-0.22,1.44-0.33c3.67-0.8,7.51-5.53,7.51-9.3
		c0-1.37-0.31-2.61-1.83-2.98c-1.3-0.31-2.63-0.44-4.2-0.69c-0.09,0.02-0.44,0.05-0.77,0.13c-3.47,0.73-5.59,3.07-7,6.12
		C250.67,496.42,251.52,498.43,253.55,500.39z M260.88,491.02c0.64-0.58,1.44-1.13,2.26-0.55c0.79,0.57,0.66,1.53,0.33,2.32
		c-1.1,2.67-3.16,4.16-6.3,4.93C257.88,494.83,259.03,492.72,260.88,491.02z M256.55,491.91c-0.91,1.88-1.68,3.47-2.48,5.13
		C253.13,495.18,253.88,493.54,256.55,491.91z"/>
	<path class="st0" d="M259.51,503.07c-0.71,0.09-0.88,0.68-0.79,1.28c0.2,1.33,0.4,2.7,0.8,3.98c0.88,2.83,1.84,5.64,2.85,8.42
		c0.42,1.19,1.3,1.75,2.61,1.24c0.97-0.37,1.3-1,0.97-2.01c-1.32-3.95-2.85-7.8-4.68-11.54
		C260.97,503.8,260.47,503.15,259.51,503.07z"/>
	<path class="st0" d="M333.92,484.2c1.08-0.13,1.63-0.86,1.53-1.94s-0.77-1.61-1.94-1.64c-0.97,0.16-1.66,0.82-1.61,1.84
		C331.97,483.62,332.72,484.33,333.92,484.2z"/>
</g>
<g>
</g>
<g>
</g>
<g>
</g>
<g>
</g>
<g>
</g>
<g>
</g>
<g>
</g>
<g>
</g>
<g>
</g>
<g>
</g>
<g>
</g>
</svg>
